<?xml version="1.0" encoding="utf-8"?>
<!-- Generator: Adobe Illustrator 20.0.0, SVG Export Plug-In . SVG Version: 6.00 Build 0)  -->
<svg version="1.1" id="Layer_1" xmlns="http://www.w3.org/2000/svg" xmlns:xlink="http://www.w3.org/1999/xlink" x="0px" y="0px"
	 viewBox="0 0 50 50" style="enable-background:new 0 0 50 50;" xml:space="preserve">
<style type="text/css">
	.st0{fill:#712D91;}
</style>
<title>aetna</title>
<path class="st0" d="M28.3,29l0.1,2.3c-0.7,0.2-1.4,0.3-2.2,0.2c-2.3,0-3.5-1-3.5-3.3c0-1.8,0-3.8,0-4.9h-1.2c0-0.5,0-1.2,0-1.7
	c1.8-0.3,2.3-1.3,2.6-3.2h1.9c-0.1,0.8-0.1,1.9-0.1,2.7h2v2.2h-2v3.9c0,1.5,0.3,1.9,1.4,1.9C27.7,29.2,28,29.2,28.3,29z M39,26.6
	c0-0.9,0-2,0-2c0-2.6-1.1-3.7-4.3-3.7c-1.8,0-3.1,0.3-5,0.3c0.1,1.8,0.1,4,0.1,5.4s0,3.9-0.1,4.7h3.4C33,30.5,33,28.2,33,26.6
	c0-0.9,0-2,0-3.4c0.4-0.1,0.8-0.2,1.2-0.2c1.2,0,1.6,0.6,1.6,2.1c0,0,0,1,0,1.5c0,1.4,0,3.9-0.1,4.7h3.4C39,30.5,39,28.1,39,26.6z
	 M16.2,27h-1.3v0.1c0,1.5,1,2.4,2.7,2.4c1,0,1.9-0.3,2.7-0.7l0.1,2.3c-1.1,0.4-2.2,0.6-3.4,0.5c-3.6,0-5.3-1.2-5.6-4.5
	c-0.4,0-1,0-1.9,0c0,0.6,0,1.1,0,1.5c0,0.9,0,1.9,0.1,2.8c-2,0-3.5,0.2-5,0.2c-2.9,0-4-1.2-4-3.3s1.6-3.1,5.2-3.1h0.5V25
	c0-1.4-0.4-2-1.9-2c-1,0-1.9,0.3-2.8,0.8l-0.1-2.3c1.2-0.4,2.4-0.6,3.7-0.6c3.1,0,4.3,1,4.3,3.9c0,0.2,0,0.3,0,0.5
	c0.8,0,1.3,0,1.8,0c0.3-2.8,1.7-4.4,5.2-4.4c2.9,0,4.2,1.2,4.2,3C20.9,26,19.3,27,16.2,27z M6.4,29.4c0-0.7,0-1.7,0-2.5H6
	c-1.5,0-2.1,0.5-2.1,1.4s0.5,1.3,1.6,1.3C5.8,29.5,6.1,29.5,6.4,29.4z M15.8,25.3c1.4,0,2-0.5,2-1.5c0-0.7-0.5-1.1-1.2-1.1
	c-1.3,0-1.8,1-1.8,2.5v0C15.1,25.3,15.4,25.3,15.8,25.3L15.8,25.3z M49.3,31.3c-2,0-3.5,0.2-5,0.2c-2.9,0-4-1.2-4-3.3
	s1.7-3.1,5.2-3.1H46V25c0-1.4-0.4-2-1.9-2c-1,0-1.9,0.3-2.8,0.8l-0.1-2.3c1.2-0.4,2.4-0.6,3.7-0.6c3.1,0,4.3,1,4.3,3.9
	c0,1.5-0.1,2.8-0.1,3.7C49.1,29.4,49.2,30.4,49.3,31.3L49.3,31.3z M46,29.4c0-0.7,0-1.7,0-2.5h-0.4c-1.5,0-2.1,0.5-2.1,1.4
	s0.5,1.3,1.5,1.3C45.4,29.5,45.7,29.5,46,29.4z"/>
</svg>
