<svg id="Layer_1" data-name="Layer 1" xmlns="http://www.w3.org/2000/svg" viewBox="0 0 50 50"><defs><style>.cls-1{fill:#809cff;}</style></defs><title>aetna</title><path class="cls-1" d="M28.26,29l.14,2.25a8.8,8.8,0,0,1-2.17.24c-2.25,0-3.45-.95-3.45-3.26,0-1.81,0-3.8.05-4.88H21.67c0-.49,0-1.19,0-1.71,1.75-.29,2.3-1.27,2.56-3.19h1.92c-.07.79-.13,1.93-.13,2.71h2v2.19H26v3.94c0,1.53.31,1.94,1.36,1.94A1.86,1.86,0,0,0,28.26,29ZM39,26.58c0-.86,0-2,0-2,0-2.56-1.12-3.71-4.3-3.71-1.78,0-3.06.31-5,.31.11,1.8.12,4,.11,5.4s0,3.91-.11,4.72h3.42c-.08-.81-.15-3.14-.14-4.72,0-.9,0-2,0-3.44a3.87,3.87,0,0,1,1.24-.2c1.2,0,1.58.56,1.58,2.1,0,0,0,1,0,1.54,0,1.4,0,3.91-.11,4.72h3.42C39.05,30.49,39,28.15,39,26.58ZM16.16,27l-1.31,0v.07c0,1.45,1,2.37,2.71,2.37a5.53,5.53,0,0,0,2.73-.73L20.42,31a9.06,9.06,0,0,1-3.36.55c-3.58,0-5.3-1.23-5.6-4.55-.41,0-1,0-1.86,0,0,.58,0,1.1,0,1.53A19,19,0,0,0,9.7,31.3c-2,0-3.48.22-5,.22C1.75,31.51.72,30.3.72,28.24s1.65-3.08,5.22-3.08h.49v-.21c0-1.42-.44-2-1.87-2a6.35,6.35,0,0,0-2.8.75l-.12-2.26a10.6,10.6,0,0,1,3.7-.56c3.13,0,4.3,1,4.3,3.87,0,.16,0,.31,0,.46.76,0,1.32,0,1.83,0,.32-2.8,1.72-4.36,5.22-4.36,2.89,0,4.22,1.22,4.22,3C20.92,26,19.3,27,16.16,27ZM6.4,29.43c0-.69,0-1.68,0-2.53H6c-1.49,0-2.08.5-2.08,1.38s.46,1.27,1.55,1.27A4.09,4.09,0,0,0,6.4,29.43Zm9.37-4.12c1.37,0,2-.46,2-1.45,0-.7-.48-1.09-1.22-1.09-1.3,0-1.75,1-1.75,2.46v.05C15.1,25.3,15.45,25.31,15.78,25.31Zm33.5,6c-2,0-3.48.22-5,.22-2.92,0-3.95-1.21-3.95-3.28s1.65-3.08,5.22-3.08H46v-.21c0-1.42-.43-2-1.87-2a6.35,6.35,0,0,0-2.8.75l-.12-2.26a10.6,10.6,0,0,1,3.7-.56c3.13,0,4.3,1,4.3,3.87,0,1.52-.1,2.82-.1,3.74A18.92,18.92,0,0,0,49.28,31.3ZM46,29.43c0-.69,0-1.68,0-2.53h-.42c-1.49,0-2.08.5-2.08,1.38s.46,1.27,1.55,1.27A4.09,4.09,0,0,0,46,29.43Z"/></svg>