<?xml version="1.0" encoding="utf-8"?>
<!-- Generator: Adobe Illustrator 20.0.0, SVG Export Plug-In . SVG Version: 6.00 Build 0)  -->
<svg version="1.1" id="Layer_1" xmlns="http://www.w3.org/2000/svg" xmlns:xlink="http://www.w3.org/1999/xlink" x="0px" y="0px"
	 viewBox="0 0 50 50" style="enable-background:new 0 0 50 50;" xml:space="preserve">
<style type="text/css">
	.st0{fill:#809CFF;}
</style>
<title>bluecross</title>
<g>
	<g>
		<path class="st0" d="M15.2,22.6c2.9-4.6,5.6-9.1,8.5-13.4c1-1.5,2.1-1.4,3.2,0.3c3.1,4.9,6.2,9.8,9.3,14.8
			c0.5,0.8,0.9,1.5,1.6,2.5C29.5,28.1,22.2,26.8,15.2,22.6z"/>
		<path class="st0" d="M11.9,28c0.3-1.2,0.8-1.6,2-1.1c7.6,3.3,15.4,3.8,23.4,1.8c0.5-0.1,1.1,0.1,1.6,0.2c-0.3,0.5-0.5,1.1-0.8,1.4
			c-1,0.8-2.1,1.5-3.2,2.4c-2.6,2.1-5.4,2.6-8.7,1.9C21.1,33.5,16.2,31.5,11.9,28z"/>
		<path class="st0" d="M25.2,41.9c2.7-1.5,5.4-3.1,8.2-4.4c1.1-0.5,2.4-0.6,3.6-1c1.4-0.4,2.9-0.7,4.2-1.3c1.1-0.5,1.6-0.1,2.2,0.8
			c0.7,1.2,1.5,2.3,2.1,3.5c0.8,1.5,0.3,2.3-1.4,2.4c-1.9,0.1-3.9,0-5.8,0C34,41.9,29.6,41.9,25.2,41.9z"/>
		<path class="st0" d="M9.1,32.1c4.6,2.9,9.5,4.6,14.7,5.3c-4.2,1.1-8.4,1.6-12.8,1.3c-1.3-0.1-2.6-0.3-3.9-0.3c-0.4,0-1,0.6-1.1,1
			C5.9,40.1,6,41,6,41.8c-2-0.1-2.4-0.6-1.5-2.1C6,37.2,7.5,34.8,9.1,32.1z"/>
		<path class="st0" d="M40.7,31.6c0.3,0.5,0.7,1,1.2,1.8c-1.4,0.4-2.6,0.7-3.8,1c-0.1-0.1-0.1-0.2-0.2-0.3
			C38.8,33.4,39.7,32.6,40.7,31.6z"/>
	</g>
</g>
</svg>
