<svg id="Layer_1" data-name="Layer 1" xmlns="http://www.w3.org/2000/svg" viewBox="0 0 50 50"><defs><style>.cls-1{fill:#809cff;}</style></defs><title>Artboard 4</title><path class="cls-1" d="M25.9,3.75a27.26,27.26,0,0,1,5.6,6.6,7.58,7.58,0,0,1,.1,7.7c-.1.1-.1.3-.2.4v.1a1.69,1.69,0,0,1,.5-.2,7.58,7.58,0,0,1,7.7.1,25.73,25.73,0,0,1,4.9,3.8c.6.6,1.1,1.2,1.8,1.9a28.52,28.52,0,0,0-9.4-2.9,20,20,0,0,0-9.6,1.3A21.32,21.32,0,0,0,28.6,13,28.47,28.47,0,0,0,25.9,3.75Z"/><path class="cls-1" d="M24.4,3.75a27.26,27.26,0,0,0-5.6,6.6,7.58,7.58,0,0,0-.1,7.7c.1.1.1.3.2.4v.1a1.69,1.69,0,0,0-.5-.2,7.58,7.58,0,0,0-7.7.1,25.73,25.73,0,0,0-4.9,3.8c-.6.6-1.1,1.2-1.8,1.9a28.52,28.52,0,0,1,9.4-2.9,20,20,0,0,1,9.6,1.3A21.32,21.32,0,0,1,21.7,13,26.19,26.19,0,0,1,24.4,3.75Z"/><path class="cls-1" d="M31.3,31.35c.3.7.6,1.4.9,2a7.37,7.37,0,0,1-.9,6.6,42.52,42.52,0,0,1-3.7,4.7,12.88,12.88,0,0,1-1.7,1.6A29.72,29.72,0,0,0,28.7,37a20.2,20.2,0,0,0-1.2-9.7c6.6,2.4,12.8,1.4,18.9-1.4-1,1-2,2-3.1,2.9a36,36,0,0,1-4,2.8,7.57,7.57,0,0,1-7.3,0A4.87,4.87,0,0,0,31.3,31.35Z"/><path class="cls-1" d="M18.6,31.45a22.15,22.15,0,0,1-3.1,1,7.4,7.4,0,0,1-5-.9,22.74,22.74,0,0,1-5.4-4.3c-.5-.5-.9-1-1.5-1.5,6.1,3,12.3,4,19,1.6a19.94,19.94,0,0,0-1.2,9.6,28.31,28.31,0,0,0,2.7,9.3,1.38,1.38,0,0,0-.4-.3,1.38,1.38,0,0,1-.3-.4c-1.4-1.6-2.8-3.1-4.1-4.7a9.69,9.69,0,0,1-1.8-4,8.38,8.38,0,0,1,.8-4.9A2.19,2.19,0,0,0,18.6,31.45Z"/></svg>