<svg id="Layer_1" data-name="Layer 1" xmlns="http://www.w3.org/2000/svg" viewBox="0 0 50 50"><defs><style>.cls-1{fill:#809cff;}</style></defs><title>Artboard 5</title><path class="cls-1" d="M33.65,16.4V5.7H16.55V16.5H5.75V33.6h9.9c.7,0,1,.2.9.9v9.8h17V34.5c0-1,0-1,1-1h9.7V16.3C40.75,16.4,37.25,16.4,33.65,16.4Zm-8.4-2.3c3.2.1,8.6,2.5,9.7,6.4-.2,0-.5.1-.7.1h-6.7a1.7,1.7,0,0,1-.7-.1c-1.4-.3-1.7-1.3-.9-2.5.3-.5.7-.9.3-1.5a1.44,1.44,0,0,0-1.8-.6,1.28,1.28,0,0,0-.5,1.7c.1.1.1.2.2.3.9,1.2.4,2.5-1.1,2.5-2.5.1-5,0-7.6,0a.35.35,0,0,0-.2-.1A11.36,11.36,0,0,1,25.25,14.1Zm-6.7,19.3a10.93,10.93,0,0,1-3.7-5.3,11.84,11.84,0,0,1-.1-6.2c.1-.6.4-.8,1-.7,2.1.2,4.2.3,6.2.6,1.5.2,2,1.4,1.2,2.9l-2.4,4.5c-.6,1.2-1.3,2.3-1.9,3.5A4.88,4.88,0,0,0,18.55,33.4Zm8.6,2.2a10.71,10.71,0,0,1-7.6-1.4c-.5-.3-.5-.5-.2-1,1.6-2.3,3.2-4.6,4.8-7,.5-.8,1.2-.9,1.8-.1,1.8,2.6,3.5,5.1,5.3,7.8A12.3,12.3,0,0,1,27.15,35.6ZM32,33.3c-.1,0-.1.1-.3.1l-1.5-2.7c-1-1.9-2.1-3.9-3.1-5.8a4.88,4.88,0,0,1-.3-.7,1.61,1.61,0,0,1,1.5-2.4l6.5-.6c.4,0,.7,0,.8.5A11.06,11.06,0,0,1,32,33.3Z"/><path class="cls-1" d="M22,16.4c.3.9.5,1.7.7,2.5h-4.4A8.15,8.15,0,0,1,22,16.4Z"/><path class="cls-1" d="M27.45,18.9c.2-.8.5-1.6.7-2.4a7.11,7.11,0,0,1,3.5,2.4Z"/><path class="cls-1" d="M32.05,30.7c-1.3-2.4-2.5-4.7-3.8-7.3,2-.2,3.8-.3,5.7-.5A9.07,9.07,0,0,1,32.05,30.7Z"/><path class="cls-1" d="M18.05,30.7a8.64,8.64,0,0,1-2-5.9c.1-2-.3-1.8,1.8-1.6,1,.1,2.1.1,3.1.2a3.71,3.71,0,0,1,.9.2C20.55,26,19.35,28.3,18.05,30.7Z"/><path class="cls-1" d="M25.05,27.7q1.95,2.85,3.6,5.4c-1.4,1.1-5.9,1.1-7.3,0C22.65,31.4,23.75,29.7,25.05,27.7Z"/></svg>