<?xml version="1.0" encoding="utf-8"?>
<!-- Generator: Adobe Illustrator 20.0.0, SVG Export Plug-In . SVG Version: 6.00 Build 0)  -->
<svg version="1.1" id="Layer_1" xmlns="http://www.w3.org/2000/svg" xmlns:xlink="http://www.w3.org/1999/xlink" x="0px" y="0px"
	 viewBox="0 0 50 50" style="enable-background:new 0 0 50 50;" xml:space="preserve">
<style type="text/css">
	.st0{fill:#008BCC;}
</style>
<title>blueshield</title>
<path class="st0" d="M38.8,4.6C34.6,6.8,29.8,8,25,8c-4.8,0-9.6-1.2-13.9-3.4c-2.9,5.7-3.3,14.8-0.8,22.5
	c2.3,7.8,7.6,14.3,14.7,18.3c7.7-4.2,12.3-11,14.6-18.3C42.2,19.4,41.7,10.3,38.8,4.6z M36.8,26.2c-2.2,6.3-5.5,11.8-11.7,15.7
	c-6.3-3.9-9.7-9.5-11.8-15.7C11.4,20.6,10.9,14,13,9c2.2,0.8,4.4,1.3,6.7,1.7c1.8,0.3,3.6,0.4,5.4,0.4c1.8,0,3.6-0.1,5.4-0.4
	c2.3-0.3,4.5-0.9,6.7-1.7C39.1,14,38.7,20.6,36.8,26.2L36.8,26.2z"/>
<path class="st0" d="M30.5,12.1c-1.8,0.2-3.6,0.4-5.5,0.4c-1.8,0-3.7-0.2-5.5-0.4c-1.8-0.3-3.6-0.7-5.5-1.2c-1.3,3.8-1.1,8.6,0,12.7
	c1.9,8,6.8,14,11,16.7c4.3-2.7,9.1-8.8,11-16.7c1-4.3,1.3-9,0-12.7C34.2,11.4,32.3,11.8,30.5,12.1z M24,36.7
	c-0.1,0.4,0.1,0.6,0.1,0.8s-0.3,0.2-0.4,0c-0.2-0.3-0.3-0.6-0.3-1c-0.1-0.5,0.1-1,0.5-1.3c0.1-0.1,0.3-0.2,0.4-0.3l0.1,1.3
	C24.2,36.2,24,36.3,24,36.7z M25.7,37.9c0,0.2-0.1,0.4-0.5,0.4s-0.5-0.1-0.5-0.5c-0.1-1.6-0.1-4.5-0.1-4.5c0.2,0.1,0.5,0.2,0.7,0.3
	c0.1,0,0.3,0.2,0.5,0.4c0,0.1,0.1,0.1,0.1,0.2C25.8,35.4,25.7,37.5,25.7,37.9L25.7,37.9z M27,35c-0.2,0.2-0.5,0.3-0.8,0.4v-1.2
	c0.1-0.1,0.1-0.2,0.1-0.3c-0.4-0.4-0.8-0.7-1.3-1c-0.5-0.2-1-0.4-1.5-0.5c-0.9-0.3-1.4-1.2-1.1-2.1c0-0.1,0.1-0.2,0.1-0.2
	c0.1-0.4,0.6-0.6,0.8-0.7c0.2-0.1,0.4-0.1,0.6-0.2l0.1,1.4c0,0-0.1,0-0.2,0.2c-0.1,0.1,0,0.3,0.1,0.4c0,0,0,0,0.1,0
	c0.8,0.3,1.5,0.7,2.3,1.1c0.9,0.5,1.2,0.9,1.2,1.6C27.6,34.3,27.4,34.8,27,35z M24.5,28.5c0.7,0.1,0.9,0.1,1.5,0.2l-0.1,2.8
	l-0.6-0.3l-0.6-0.3L24.5,28.5z M28.5,29.1c-0.1,0.5-0.4,0.9-0.9,1.2c-0.3,0.2-0.7,0.3-1.1,0.3v-1.7c0.1,0,0.1,0,0.2-0.1
	c0.1-0.1,0.1-0.2,0.1-0.3c0-0.1-0.1-0.2-0.2-0.3c-0.2-0.1-0.3-0.1-0.5-0.1l-2.4-0.3c-1.3,0-2.4-1.1-2.4-2.5c0,0,0,0,0,0
	c0.1-0.9,1-1.2,1.7-1.5l0.5,1c0,0.2,0.1,0.4,0.2,0.6c0,0-0.3,0.1-0.3,0.3s0.3,0.3,0.4,0.3c1.1,0.1,2.1,0.3,3.1,0.6
	c0.5,0.1,0.9,0.4,1.2,0.8C28.4,27.9,28.5,28.5,28.5,29.1L28.5,29.1z M23.9,22.7c0,0,0.3,0,1.2,0.1c0.4,0,0.7,0.1,1.1,0.2l-0.1,3
	c-0.7-0.1-1.1-0.2-1.7-0.3c-0.2-0.8-0.5-1.6-0.9-2.3c-0.1-0.2,0-0.3,0-0.3c0.2-0.1,0.3-0.2,0.5-0.2L23.9,22.7z M26.6,25.7
	c0,0,0.1-1.4,0.1-2.1c0.3-0.1,0.4-0.3,0.4-0.6c0-0.1,0-0.2-0.1-0.2c-0.1-0.2-0.3-0.3-0.5-0.3c-0.8-0.1-1.5-0.2-2.3-0.3
	c-0.7-0.1-1.3-0.2-1.9-0.3c-1.3-0.2-2.4-1-3.1-2.2c-0.7-1.5-0.1-3.3,1.4-4.1c1.1-0.5,2.3-0.5,3.4,0c0.4,0.1,0.6,0.5,0.8,0.8
	c0.1,0.1,0.3,0.2,0.4,0.4s-0.1,0.1-0.1,0.1c-0.4,0.1-0.9,0.1-1.3,0h-1.2c0.4,0.2,0.7,0.4,1.1,0.6c0.2,0.1,0.4,0.1,0.6,0.2
	s0.3,0.1,0.3,0.2s-0.2,0.1-0.4,0.2c-0.4,0.1-0.7,0.1-1.1,0c-0.6-0.1-0.9-0.5-1.3-0.3s-0.3,0.5-0.2,0.9c0.1,0.6,0.7,0.8,1.2,1
	c1.7,0.6,3.6,0.2,5.2,1.1c0.7,0.3,1.3,0.9,1.5,1.7C30,25.2,26.6,25.6,26.6,25.7L26.6,25.7z M29.6,16.4c-0.1,0.3-0.2,0.3-0.4,0.5
	c-0.4,0.4-1,0.8-1.6,1.3c-0.4,0.3-0.7,0.6-1,1c-0.1,0.1-0.1,0.2-0.2,0.3c-1-0.2-1.9-0.2-2.7-0.4v-0.8c0,0,0.9,0,1-0.6
	c0-0.1,0-0.2-0.1-0.3c-0.1-0.1-0.3-0.2-0.5-0.2c0.7,0.1,1.4,0.4,2.1,0.7c0-0.1-0.1-0.3-0.1-0.4c-0.1-0.1-0.3-0.2-0.5-0.3
	c-0.4-0.1-1.5-0.2-1.5-0.2H25c0.2,0,0.5-0.1,0.5-0.2s0-0.3-0.2-0.5L25,16c-0.1-0.2-0.3-0.4-0.4-0.6c-0.3-0.3-0.6-0.5-1-0.6
	c0,0-0.1-0.5,0.1-0.7c0.1-0.2,0.4-0.2,0.6-0.1c0.6,0.3,1.2,0.6,1.9,0.8c0.2,0.1,0.2,0.1,0.2,0.4c0.1,0.5-0.1,1.2,0,1.5
	c0,0.1,0.2,0.1,0.2,0.1c0.7-0.4,1.1-1,1.8-1.3C28.9,15.2,29.8,15.6,29.6,16.4L29.6,16.4z"/>
<path class="st0" d="M22.9,15.6c0.2,0.2,0.2,0.4,0.5,0.4c0.2,0,0.3-0.1,0.4-0.2H24c-0.3-0.3-1-0.3-1.5-0.4
	C22.7,15.6,22.8,15.5,22.9,15.6z"/>
</svg>
