<?xml version="1.0" encoding="utf-8"?>
<!-- Generator: Adobe Illustrator 20.0.0, SVG Export Plug-In . SVG Version: 6.00 Build 0)  -->
<svg version="1.1" id="Layer_1" xmlns="http://www.w3.org/2000/svg" xmlns:xlink="http://www.w3.org/1999/xlink" x="0px" y="0px"
	 viewBox="0 0 50 50" style="enable-background:new 0 0 50 50;" xml:space="preserve">
<style type="text/css">
	.st0{fill:#008BCC;}
</style>
<title>bluecross</title>
<path class="st0" d="M33.7,16.4V5.7H16.5v10.8H5.8v17.1h9.9c0.7,0,1,0.2,0.9,0.9v9.8h17v-9.8c0-1,0-1,1-1h9.7V16.3
	C40.8,16.4,37.3,16.4,33.7,16.4z M25.3,14.1c3.2,0.1,8.6,2.5,9.7,6.4c-0.2,0-0.5,0.1-0.7,0.1h-6.7c-0.2,0-0.5,0-0.7-0.1
	c-1.4-0.3-1.7-1.3-0.9-2.5c0.3-0.5,0.7-0.9,0.3-1.5c-0.4-0.6-1.1-0.9-1.8-0.6c-0.6,0.3-0.8,1.1-0.5,1.7c0.1,0.1,0.1,0.2,0.2,0.3
	c0.9,1.2,0.4,2.5-1.1,2.5c-2.5,0.1-5,0-7.6,0c-0.1-0.1-0.1-0.1-0.2-0.1C17.2,16.5,21,14.1,25.3,14.1z M18.6,33.4
	c-1.7-1.4-3-3.2-3.7-5.3c-0.6-2-0.6-4.2-0.1-6.2c0.1-0.6,0.4-0.8,1-0.7c2.1,0.2,4.2,0.3,6.2,0.6c1.5,0.2,2,1.4,1.2,2.9l-2.4,4.5
	c-0.6,1.2-1.3,2.3-1.9,3.5C18.7,32.9,18.6,33.2,18.6,33.4z M27.2,35.6c-2.6,0.5-5.3,0-7.6-1.4c-0.5-0.3-0.5-0.5-0.2-1
	c1.6-2.3,3.2-4.6,4.8-7c0.5-0.8,1.2-0.9,1.8-0.1c1.8,2.6,3.5,5.1,5.3,7.8C30,34.7,28.6,35.3,27.2,35.6z M32,33.3
	c-0.1,0-0.1,0.1-0.3,0.1l-1.5-2.7c-1-1.9-2.1-3.9-3.1-5.8c-0.1-0.2-0.2-0.5-0.3-0.7c-0.4-0.8-0.2-1.8,0.6-2.2
	c0.3-0.2,0.6-0.2,0.9-0.2l6.5-0.6c0.4,0,0.7,0,0.8,0.5C36.8,25.9,35.4,30.5,32,33.3z"/>
<path class="st0" d="M22,16.4c0.3,0.9,0.5,1.7,0.7,2.5h-4.4C19.3,17.7,20.6,16.9,22,16.4z"/>
<path class="st0" d="M27.5,18.9c0.2-0.8,0.5-1.6,0.7-2.4c1.4,0.4,2.6,1.3,3.5,2.4H27.5z"/>
<path class="st0" d="M32,30.7c-1.3-2.4-2.5-4.7-3.8-7.3c2-0.2,3.8-0.3,5.7-0.5C34.6,25.7,33.9,28.5,32,30.7z"/>
<path class="st0" d="M18,30.7c-1.4-1.6-2.1-3.8-2-5.9c0.1-2-0.3-1.8,1.8-1.6c1,0.1,2.1,0.1,3.1,0.2c0.3,0,0.6,0.1,0.9,0.2
	C20.5,26,19.4,28.3,18,30.7z"/>
<path class="st0" d="M25,27.7c1.3,1.9,2.5,3.7,3.6,5.4c-1.4,1.1-5.9,1.1-7.3,0C22.6,31.4,23.8,29.7,25,27.7z"/>
</svg>
