<?xml version="1.0" encoding="utf-8"?>
<!-- Generator: Adobe Illustrator 20.0.0, SVG Export Plug-In . SVG Version: 6.00 Build 0)  -->
<svg version="1.1" id="Layer_1" xmlns="http://www.w3.org/2000/svg" xmlns:xlink="http://www.w3.org/1999/xlink" x="0px" y="0px"
	 viewBox="0 0 50 50" style="enable-background:new 0 0 50 50;" xml:space="preserve">
<style type="text/css">
	.st0{fill:#0082C8;}
	.st1{fill:#F8981D;}
	.st2{fill:#4FB94A;}
</style>
<title>cigna</title>
<path class="st0" d="M33.8,22.1c0,0.3-0.3,0.7-0.8,1.2c-1.5,1.8-4.8,5-4.8,13c0,4.1,0.7,5.8,0.7,7.8c0,0.9-0.2,1.3-0.6,1.3
	c-1,0-2.8-4.3-2.8-9.6c0-10.9,6.9-14,8-14C33.8,21.8,33.9,21.9,33.8,22.1 M16.5,21.8c1.1,0,8,3,8,14c0,5.2-1.8,9.6-2.8,9.6
	c-0.5,0-0.6-0.5-0.6-1.3c0-1.9,0.7-3.7,0.7-7.8c0-8-3.3-11.2-4.8-13c-0.4-0.5-0.8-0.9-0.8-1.2C16.2,21.9,16.3,21.8,16.5,21.8
	L16.5,21.8z"/>
<path class="st1" d="M22.5,24c0,1.4,1.2,2.5,2.6,2.5c1.4,0,2.5-1.2,2.5-2.6c0-1.4-1.2-2.5-2.5-2.5C23.6,21.4,22.5,22.6,22.5,24
	C22.5,24,22.5,24,22.5,24"/>
<path class="st2" d="M46.5,40.2c-5.2-3-11-4.8-16.9-5.2c-0.1,0.4-0.1,0.8-0.1,1.2c0,0.2,0,0.5,0.1,0.7c5.8,0.3,11.5,1.5,16.9,3.5
	c0.1,0,0.1,0,0.2,0.1c0,0,0.1,0,0.1-0.1c0,0,0,0,0,0C46.7,40.3,46.7,40.3,46.5,40.2 M29.1,10.8c-0.8-0.6-1.1-1.7-0.7-2.6
	c0.3-1.1,1.2-2.1,2.3-2.5c0.7,1,0.9,2.2,0.5,3.3C30.9,10,30.1,10.7,29.1,10.8z M34.9,15.6c-0.3-0.9,0-1.9,0.8-2.5
	c0.8-0.8,2-1.1,3.1-0.8c0.1,1.2-0.4,2.3-1.3,3C36.8,16,35.7,16.1,34.9,15.6L34.9,15.6z M35.1,22.9c0.3-0.9,1.1-1.5,2-1.6
	c1.1-0.2,2.2,0.2,3,1.1c-0.6,0.9-1.6,1.5-2.7,1.6C36.5,24.2,35.5,23.7,35.1,22.9L35.1,22.9z M33,25.5c0.5-0.7,1.3-1,2.1-0.8
	c1,0.2,1.8,0.8,2.3,1.7c-0.7,0.7-1.8,0.9-2.7,0.7C33.8,27,33.2,26.4,33,25.5z M26.7,18.6c-0.9-0.8-1.3-2-0.9-3.2
	c0.4-1.4,1.4-2.5,2.8-3c0.8,1.2,1.1,2.6,0.6,4C28.9,17.7,27.9,18.5,26.7,18.6L26.7,18.6z M29.4,20.3c-0.3-1,0-2.2,0.9-2.8
	c1-0.9,2.3-1.2,3.5-0.9c0.1,1.3-0.5,2.5-1.5,3.3C31.6,20.6,30.4,20.8,29.4,20.3L29.4,20.3z M31.3,14.4c-0.7-1-0.7-2.3,0-3.3
	c0.8-1.2,2.1-2,3.5-2.1c0.5,1.4,0.3,2.9-0.5,4.1C33.7,14.1,32.5,14.6,31.3,14.4L31.3,14.4z M35,19.5c0-1.1,0.6-2.2,1.7-2.6
	c1.2-0.6,2.6-0.6,3.8,0.1c-0.3,1.3-1.2,2.4-2.5,3C37.1,20.5,35.8,20.3,35,19.5z M23,8.9c-0.1-1.6,0.7-3.2,2-4.2c1.3,1,2.1,2.6,2,4.2
	c0.1,1.4-0.7,2.6-2,3.1C23.7,11.5,22.9,10.2,23,8.9z M3.3,40.4C3.3,40.4,3.3,40.5,3.3,40.4C3.3,40.5,3.3,40.5,3.3,40.4
	c0.1,0,0.2,0,0.2,0c5.4-2,11.1-3.1,16.9-3.5c0-0.2,0.1-0.5,0.1-0.7c0-0.4,0-0.8-0.1-1.2c-6,0.4-11.8,2.2-16.9,5.2
	C3.3,40.3,3.3,40.3,3.3,40.4z M18.8,9c-0.4-1.1-0.2-2.4,0.5-3.3c1.1,0.4,2,1.3,2.3,2.5c0.3,0.9,0.1,2-0.7,2.6
	C19.9,10.7,19.1,10,18.8,9z M12.5,15.3c-0.9-0.7-1.4-1.8-1.3-3c1.1-0.3,2.3,0,3.1,0.8c0.8,0.6,1.1,1.6,0.8,2.5
	C14.3,16,13.2,15.9,12.5,15.3z M12.6,24c-1.1-0.1-2.1-0.7-2.7-1.7c0.8-0.8,1.9-1.2,3-1.1c0.9,0.1,1.7,0.7,2,1.6
	C14.5,23.7,13.5,24.2,12.6,24z M15.4,27.1c-1,0.2-2,0-2.7-0.7c0.4-0.9,1.3-1.5,2.3-1.7c0.8-0.2,1.7,0.1,2.1,0.8
	C16.9,26.3,16.2,27,15.4,27.1L15.4,27.1z M20.9,16.5c-0.5-1.4-0.2-2.8,0.6-4c1.4,0.5,2.4,1.6,2.8,3c0.4,1.1,0.1,2.4-0.9,3.2
	C22.2,18.5,21.1,17.7,20.9,16.5L20.9,16.5z M17.7,19.8c-1-0.8-1.5-2-1.5-3.3c1.3-0.3,2.6,0.1,3.5,0.9c0.9,0.7,1.2,1.8,0.9,2.8
	C19.6,20.7,18.5,20.6,17.7,19.8L17.7,19.8z M15.7,13c-0.8-1.2-1-2.7-0.5-4.1c1.4,0.1,2.8,0.9,3.5,2.1c0.7,1,0.7,2.3,0,3.3
	C17.5,14.6,16.3,14,15.7,13z M11.9,20c-1.3-0.5-2.2-1.7-2.5-3c1.2-0.7,2.6-0.7,3.8-0.1c1.1,0.4,1.7,1.4,1.7,2.6
	C14.2,20.3,12.9,20.4,11.9,20L11.9,20z"/>
</svg>
