<?xml version="1.0" encoding="utf-8"?>
<!-- Generator: Adobe Illustrator 20.0.0, SVG Export Plug-In . SVG Version: 6.00 Build 0)  -->
<svg version="1.1" id="Layer_1" xmlns="http://www.w3.org/2000/svg" xmlns:xlink="http://www.w3.org/1999/xlink" x="0px" y="0px"
	 viewBox="0 0 50 50" style="enable-background:new 0 0 50 50;" xml:space="preserve">
<style type="text/css">
	.st0{fill:#EC8234;}
</style>
<title>Artboard 7</title>
<path class="st0" d="M32.1,11.3c-1,1.1-1.8,2.3-2.9,3.3s-2.1,1.7-3.4,2.8c-0.3-4.5,4.3-9.9,7.9-9.8c0.7,0,1.8,1.3,1.9,2.1
	c0.8,4-0.8,8.2-4.1,10.6c-3,2.5-7.2,3.2-10.8,1.6c-4.9-1.9-7.8-6.9-6.9-12.1c0.3-2.2,1.2-2.7,3.3-1.9c3.8,1.4,6.5,4.8,7,8.8
	c-4.1,0.2-4-4.5-7-5.2c-0.6,2.3,0.3,4.5,2.7,6.4c2.4,2,5.8,2.3,8.5,0.8c2.8-1.2,4.5-4.1,4.3-7.1C32.4,11.5,32.3,11.4,32.1,11.3z"/>
<path class="st0" d="M17,38.5c3.9-2,5.4-6.7,3.5-10.5s-6.7-5.4-10.5-3.5c-0.2,0.1-0.5,0.3-0.7,0.4c2.1,2.6,6.3,0.1,8.1,3.4
	c-3.7,1.9-9.5,0.9-11.8-2.2c-0.3-0.9-0.2-1.8,0.3-2.6c2.9-3,7.9-3.7,12-1.9c4.1,1.9,6.7,6,6.6,10.5c-0.3,4.4-3,8.2-7.1,9.9
	c-2.2,0.8-3.1,0.3-3.4-2.1c-0.5-4.3,1.1-8,4.2-10C20.2,33.1,16,35.4,17,38.5z"/>
<path class="st0" d="M31.6,29.8c3.2,2.4,4.8,6.3,4.2,10.2c-0.3,2.4-1.3,3-3.4,2.1c-4.1-1.8-6.7-4.9-7-9.4c-0.5-4.7,2.1-9.2,6.5-11
	c4.2-1.9,8.1-1.1,11.7,1.6c1.2,0.9,1.6,2,0.4,3.2c-2.7,2.8-8.2,3.7-11.8,1.1c2.8-0.8,5.5-1.5,8.7-2.4c-2.8-2-5.3-2-7.7-0.8
	c-4,1.7-5.9,6.4-4.2,10.4c0.7,1.7,2,3,3.6,3.9C33.4,35.5,29.7,33,31.6,29.8z"/>
</svg>
