<svg id="Layer_1" data-name="Layer 1" xmlns="http://www.w3.org/2000/svg" viewBox="0 0 50 50"><defs><style>.cls-1{fill:#809cff;}</style></defs><title>humana_1</title><path class="cls-1" d="M14,22.3a.29.29,0,0,0-.29.29v5.86a6,6,0,0,1-1.35.15c-1,0-1.38-.38-1.38-1.48V22.59a.28.28,0,0,0-.27-.29H9.13v4.83c0,2.27,1.2,3,3.14,3a12.87,12.87,0,0,0,3.21-.48V22.3Zm23.57,7.75a.29.29,0,0,0,.29-.29V23.85a6,6,0,0,1,1.35-.15c1,0,1.38.38,1.38,1.48v4.59a.28.28,0,0,0,.27.29h1.54V25.17c0-2.27-1.2-3-3.14-3a12.87,12.87,0,0,0-3.21.48v7.41Zm-6.16-7.88c-2,0-3.26,1.08-3.26,3.4v1.16c0,2.57,1.36,3.4,2.84,3.4a2.49,2.49,0,0,0,1.72-.83v.48a.28.28,0,0,0,.27.27h1.54V22.61a12.61,12.61,0,0,0-3.12-.44m1.3,6a1.77,1.77,0,0,1-1.3.49c-1,0-1.45-.62-1.45-1.94V25.64c0-1.52.56-1.94,1.45-1.94a6.76,6.76,0,0,1,1.3.09Zm14.2-6c-2,0-3.26,1.08-3.26,3.4v1.16c0,2.57,1.36,3.4,2.84,3.4a2.49,2.49,0,0,0,1.72-.83v.48a.28.28,0,0,0,.27.27H50V22.61a12.62,12.62,0,0,0-3.12-.44m1.3,6a1.77,1.77,0,0,1-1.3.49c-1,0-1.45-.62-1.45-1.94V25.64c0-1.52.56-1.94,1.45-1.94a6.76,6.76,0,0,1,1.3.09ZM0,30.05H1.62a.29.29,0,0,0,.27-.27V25.49h3a.86.86,0,0,1,.87.82v3.47a.28.28,0,0,0,.27.27H7.66V19.86H6a.28.28,0,0,0-.27.26v3.83H2.64a.75.75,0,0,1-.75-.73v-3.1a.28.28,0,0,0-.27-.26H0Zm24.08-7.89a3.89,3.89,0,0,0-2,.59,3.67,3.67,0,0,0-2.26-.59,8.21,8.21,0,0,0-2.78.51v7.38h1.54a.28.28,0,0,0,.27-.29V23.83a3.34,3.34,0,0,1,.89-.13c1.06,0,1.32.43,1.32,1.48v4.59a.29.29,0,0,0,.27.29h1.27a.27.27,0,0,0,.28-.29v-5.7a1.65,1.65,0,0,1,1.06-.36c.82,0,1.15.37,1.15,1.38v4.69a.28.28,0,0,0,.27.29h1.54V24.83c0-2-1.24-2.66-2.78-2.66"/></svg>