<?xml version="1.0" encoding="utf-8"?>
<!-- Generator: Adobe Illustrator 20.0.0, SVG Export Plug-In . SVG Version: 6.00 Build 0)  -->
<svg version="1.1" id="Layer_1" xmlns="http://www.w3.org/2000/svg" xmlns:xlink="http://www.w3.org/1999/xlink" x="0px" y="0px"
	 viewBox="0 0 50 50" style="enable-background:new 0 0 50 50;" xml:space="preserve">
<style type="text/css">
	.st0{fill:#006599;}
</style>
<title>Artboard 6</title>
<path class="st0" d="M29.4,18.7c-0.4-0.3-0.8-0.6-1.3-0.8l-0.8,15.3l3.8-10.5C31.4,21.1,30.7,19.6,29.4,18.7z M25.4,16.8
	c1.9,0.2,3.6-1.3,3.8-3.2c0-0.2,0-0.4,0-0.6c0.1-2.9-1.7-4-3.8-4s-3.8,1.2-3.8,4C21.7,14.6,22.3,16.7,25.4,16.8z M17.3,15.9
	c0.2-4.7-7-4.5-6.8,0C10.3,20.6,17.8,20.6,17.3,15.9z M39.5,18.3c0.1-4.6-6.8-4.7-6.6,0C32.8,22.6,39.7,22.8,39.5,18.3z M42.2,41
	v-3.1c-2.5,1.1-4.7,2-7.1,3.1H42.2z M7.9,41h7.8l-7.8-3.3C7.9,37.7,7.9,41,7.9,41z M42.2,37.3v-3.2c-2.5,1.6-5.1,3.2-7.3,4.9
	L42.2,37.3z M7.9,37.1c2.7,0.6,5.6,1.3,8,1.8l-8-5.3V37.1z M42.2,33.3v-4.2l-8.3,8.1C36.7,36,39.3,34.7,42.2,33.3z M7.9,33l8.8,4
	c-2.9-2.9-5.8-5.7-8.8-8.6C7.9,28.4,7.9,33,7.9,33z M41.6,25.6c-0.2-0.4-0.5-0.8-0.8-1.1l-8.3,11.3c3.3-2.5,6.5-4.9,9.6-7.5
	C42.2,27.4,42,26.4,41.6,25.6z M7.9,27.8c3.4,2.6,6.8,5.3,10.1,7.9L8.9,22.8C8,24.3,7.7,26.1,7.9,27.8z M36.3,22.3l-5.5,12.2
	L40.4,24C39.3,22.9,37.8,22.3,36.3,22.3z M30.9,25.6l-1.7,8.3c2.2-3.8,4.4-7.6,6.6-11.5C33.6,22.5,31.6,23.3,30.9,25.6z M9.2,22.3
	l10.3,12l-6.3-14.1C11.6,20.2,10.1,21,9.2,22.3z M13.7,20.1c2.5,4.4,5.1,9.2,7.6,13.4c-0.8-3.7-1.8-9.9-3.1-11.6
	C16.8,19.8,13.7,20.1,13.7,20.1z M21.4,18.7c-1.3,0.9-2,2.4-1.8,3.9l3.8,10.5l-0.7-15.2C22.1,18,21.7,18.3,21.4,18.7z M23.2,17.8
	L25.4,33l2.2-15.2C26.1,17.2,24.6,17.2,23.2,17.8z"/>
</svg>
