<svg id="Layer_1" data-name="Layer 1" xmlns="http://www.w3.org/2000/svg" viewBox="0 0 50 50"><defs><style>.cls-1{fill:#809cff;}</style></defs><title>Artboard 6</title><path class="cls-1" d="M29.36,18.7a5.67,5.67,0,0,0-1.3-.8l-.8,15.3,3.8-10.5a3.86,3.86,0,0,0-1.7-4Zm-4-1.9a3.51,3.51,0,0,0,3.8-3.8c.1-2.9-1.7-4-3.8-4s-3.8,1.2-3.8,4c.1,1.6.7,3.7,3.8,3.8Zm-8.1-.9c.2-4.7-7-4.5-6.8,0-.2,4.7,7.3,4.7,6.8,0Zm22.2,2.4c.1-4.6-6.8-4.7-6.6,0-.1,4.3,6.8,4.5,6.6,0Zm0,0ZM42.16,41V37.9c-2.5,1.1-4.7,2-7.1,3.1ZM7.86,41h7.8l-7.8-3.3V41Zm34.3-3.7V34.1c-2.5,1.6-5.1,3.2-7.3,4.9l7.3-1.7Zm-34.3-.2c2.7.6,5.6,1.3,8,1.8l-8-5.3v3.5Zm34.3-3.8V29.1l-8.3,8.1c2.8-1.2,5.4-2.5,8.3-3.9ZM7.86,33l8.8,4c-2.9-2.9-5.8-5.7-8.8-8.6V33Zm33.7-7.4a4.44,4.44,0,0,0-.8-1.1l-8.3,11.3c3.3-2.5,6.5-4.9,9.6-7.5a4,4,0,0,0-.5-2.7ZM7.86,27.8c3.4,2.6,6.8,5.3,10.1,7.9L8.86,22.8a8.22,8.22,0,0,0-1,5Zm28.4-5.5-5.5,12.2L40.36,24a5.9,5.9,0,0,0-4.1-1.7Zm-5.4,3.3-1.7,8.3c2.2-3.8,4.4-7.6,6.6-11.5-2.2.1-4.2.9-4.9,3.2ZM9.16,22.3l10.3,12-6.3-14.1a5,5,0,0,0-4,2.1Zm4.5-2.2c2.5,4.4,5.1,9.2,7.6,13.4-.8-3.7-1.8-9.9-3.1-11.6-1.4-2.1-4.5-1.8-4.5-1.8Zm7.7-1.4a4.11,4.11,0,0,0-1.8,3.9l3.8,10.5-.7-15.2a2.22,2.22,0,0,0-1.3.8Zm1.8-.9L25.36,33l2.2-15.2a6.07,6.07,0,0,0-4.4,0Z"/></svg>