<svg id="Layer_1" data-name="Layer 1" xmlns="http://www.w3.org/2000/svg" viewBox="0 0 50 50"><defs><style>.cls-1{fill:#809cff;}</style></defs><title>prime_1</title><path class="cls-1" d="M24.91,16.62a3.4,3.4,0,0,1,2.39,1,55.57,55.57,0,0,1,10.22-2.19A27.49,27.49,0,0,0,25,12.58C14.13,12.58,5.32,18.12,5.32,25c0,3.21,1.95,6.14,5.14,8.34a3.73,3.73,0,0,1-.33-1.56c0-3.46,4-8.27,11.38-11.85a3.4,3.4,0,0,1,3.4-3.27"/><path class="cls-1" d="M39.15,16.36a42.51,42.51,0,0,0-10.93,2.86,3.64,3.64,0,0,1,.11.81,3.41,3.41,0,0,1-5.87,2.36C14.54,28,13.75,35.53,20.79,37a20.78,20.78,0,0,0,4.21.39c10.87,0,19.68-5.62,19.68-12.45,0-3.35-2.11-6.38-5.54-8.61"/></svg>