<svg id="Layer_1" data-name="Layer 1" xmlns="http://www.w3.org/2000/svg" viewBox="0 0 50 50"><defs><style>.cls-1{fill:#809cff;}</style></defs><title>riteaid_1</title><path class="cls-1" d="M31,26.68H29.61V32h1.26c1.9,0,2.34-1.26,2.32-2.64C33.18,27.68,32.77,26.68,31,26.68Z"/><path class="cls-1" d="M40.87,23.13H9.13s0,3.3,0,3.3v4.38c.07,2.66,3.2,3.46,3.2,3.46l12.62,4.25,12.66-4.26s3.27-.8,3.27-3.5V23.13ZM21.48,33.5,21,32.16h-3.4l-.48,1.35h-2s3.1-8.41,3.08-8.43h2s3.3,8.42,3.27,8.43Zm4.83,0h-2V25.12h2Zm4.85,0H27.73V25.12h4.12c1.23,0,3.19,1,3.21,4C35.07,31.48,34,33.49,31.15,33.49Z"/><polygon class="cls-1" points="19.26 27.66 18.23 30.53 20.35 30.53 19.29 27.69 19.26 27.66"/><path class="cls-1" d="M17.42,14.52H15.59v2h1.84a1,1,0,1,0,0-2Z"/><path class="cls-1" d="M39.17,11.49H10.95a1.59,1.59,0,0,0-1.82,1.7v5.9s0,3,0,3H40.88v-9A1.69,1.69,0,0,0,39.17,11.49ZM18.23,20.65l-2.64-3.57v3.57H13.7V12.88h4.09a2.47,2.47,0,0,1,2.81,2.66,2.58,2.58,0,0,1-1.66,2.37s1.79,2.77,1.76,2.74Zm5.17,0H21.33V12.87H23.4Zm6.6-6H28v6H26v-6H24V12.87h6Zm6.67,0H32.6V16h3.45V17.6H32.6V19h4.06v1.64h-6V12.87h6Z"/></svg>