<svg id="Layer_1" data-name="Layer 1" xmlns="http://www.w3.org/2000/svg" viewBox="0 0 50 50"><defs><style>.cls-1,.cls-4{fill:#fff;}.cls-1{stroke:#fff;stroke-width:1.9px;}.cls-2{fill:#004f99;}.cls-3{fill:#ef3e42;}</style></defs><title>riteaid</title><path class="cls-1" d="M40.87,22.45h0V13.13a1.69,1.69,0,0,0-1.71-1.64H10.95a1.59,1.59,0,0,0-1.82,1.7v9.57"/><path class="cls-1" d="M9.13,22.76v8c.07,2.66,3.2,3.46,3.2,3.46l12.62,4.25,12.66-4.26s3.27-.8,3.27-3.5v-8.3"/><path class="cls-2" d="M40.88,22.11v-9a1.69,1.69,0,0,0-1.71-1.64H10.95a1.59,1.59,0,0,0-1.82,1.7v5.9s0,3,0,3H40.88Z"/><path class="cls-3" d="M9.13,23.13s0,3.3,0,3.3v4.38c.07,2.66,3.2,3.46,3.2,3.46l12.62,4.25,12.66-4.26s3.27-.8,3.27-3.5V23.13H9.13Z"/><path class="cls-4" d="M15.12,33.5s3.1-8.41,3.08-8.43h2s3.3,8.42,3.27,8.43h-2L21,32.16h-3.4l-.48,1.35Zm5.23-3-1.07-2.84,0,0-1,2.87Z"/><polygon class="cls-4" points="24.33 25.12 26.31 25.12 26.31 33.49 24.33 33.49 24.33 25.12"/><path class="cls-4" d="M27.73,25.12h4.12c1.23,0,3.19,1,3.21,4,0,2.35-1,4.35-3.91,4.35H27.73V25.12ZM29.61,32h1.26c1.9,0,2.34-1.26,2.32-2.64,0-1.65-.42-2.64-2.2-2.64H29.61V32Z"/><polygon class="cls-4" points="21.33 12.87 23.4 12.87 23.4 20.63 21.33 20.63 21.33 12.87"/><polygon class="cls-4" points="24 12.87 30 12.87 30 14.61 28.02 14.61 28.02 20.63 26 20.63 26 14.61 24 14.61 24 12.87"/><polygon class="cls-4" points="36.06 15.95 36.06 17.6 32.6 17.6 32.6 18.99 36.67 18.99 36.67 20.63 30.71 20.63 30.71 12.87 36.67 12.87 36.67 14.61 32.6 14.61 32.6 15.95 36.06 15.95"/><path class="cls-4" d="M13.7,12.88h4.09a2.47,2.47,0,0,1,2.81,2.66,2.58,2.58,0,0,1-1.66,2.37s1.79,2.77,1.76,2.74H18.23s-3-4.08-3-4.08h2.22a1,1,0,1,0,0-2H15.59v6.12H13.7V12.88Z"/></svg>