<?xml version="1.0" encoding="utf-8"?>
<!-- Generator: Adobe Illustrator 20.0.0, SVG Export Plug-In . SVG Version: 6.00 Build 0)  -->
<svg version="1.1" id="Layer_1" xmlns="http://www.w3.org/2000/svg" xmlns:xlink="http://www.w3.org/1999/xlink" x="0px" y="0px"
	 viewBox="0 0 50 50" style="enable-background:new 0 0 50 50;" xml:space="preserve">
<style type="text/css">
	.st0{fill:#8C1515;}
</style>
<g>
	<path class="st0" d="M9.8,6.4C9,8.2,7.3,15.2,8.7,23.2h16.1V6.4H9.8z M22.4,18.5c-0.7,0.3-1.1,0.2-1.4-0.1
		c-0.2,0.3-0.5,0.6-0.8,0.9c0.5,0.1,0.7,0.3,1.1,0.6c-0.7,0.3-1.3,0.2-1.6-0.1c-0.3,0.2-0.5,0.5-0.8,0.6c0.4,0.2,0.8,0.5,1,0.8
		c-0.9,0.2-1.4,0-1.7-0.5c-0.3,0.1-0.5,0.2-0.7,0.2c0.2,0.2,0.4,0.4,0.5,0.6c-0.6,0-0.9-0.2-1-0.5c-0.1,0-0.2,0.1-0.4,0.1v1.1L16,22
		v-0.8c-0.1,0-0.2-0.1-0.3-0.1c-0.1,0.3-0.4,0.5-0.9,0.5c0.1-0.3,0.2-0.5,0.5-0.6c-0.3-0.1-0.5-0.2-0.8-0.3
		c-0.2,0.5-0.7,0.8-1.6,0.5c0.3-0.4,0.6-0.7,1-0.9c-0.2-0.1-0.4-0.3-0.7-0.5c-0.3,0.4-0.9,0.5-1.7,0.2c0.3-0.3,0.6-0.6,1.1-0.7
		c-0.2-0.2-0.5-0.5-0.7-0.8c-0.3,0.3-0.9,0.4-1.6,0.1c0.3-0.3,0.7-0.7,1.1-0.7c-0.1-0.2-0.3-0.4-0.4-0.6c-0.1,0-0.3,0-0.4-0.2
		c-0.2-0.2-0.3-0.7,0-0.8c0.2-0.1,0.6,0.1,0.7,0.3c0.1,0.2,0.1,0.4,0,0.5c0.1,0.2,0.3,0.4,0.4,0.6c-0.1-0.6,0.1-1.2,0.2-1.5
		c0.6,0.8,0.5,1.5,0.1,1.9c0.2,0.3,0.4,0.5,0.7,0.7c-0.1-0.4,0-1.1,0.1-1.5c0.5,0.7,0.6,1.5,0.4,2c0.2,0.2,0.4,0.4,0.6,0.5
		c-0.1-0.4-0.2-1.1-0.1-1.5c0.6,0.6,0.8,1.3,0.6,1.8c0.3,0.1,0.5,0.2,0.8,0.3c-0.1-0.2-0.2-0.7-0.2-0.9c0.4,0.3,0.6,0.6,0.5,1
		c0.1,0,0.3,0.1,0.3,0.1v-1c-0.4-0.1-1.1-0.4-1.3-1.2c0.4,0.1,0.9,0.2,1.3,0.5v-0.5c-0.9-0.1-1.8-0.7-2.2-2c0.8,0.1,1.5,0.5,2.2,1
		v-0.5c-0.8-0.1-1.5-0.8-1.8-1.8c0.6,0.1,1.2,0.4,1.8,0.8v-0.6c-0.7-0.1-1.5-0.7-1.8-1.8c0.6,0.1,1.2,0.4,1.8,0.8v-0.7
		c-0.8-0.1-1.5-0.5-1.8-1.6c0.6,0.1,1.2,0.5,1.8,0.9v-0.7c-0.6-0.1-1.2-0.4-1.4-1.6c0.5,0.1,1,0.3,1.4,0.8v-0.8
		c-0.5-0.1-0.9-0.3-1.1-1.2c0.3,0.1,0.7,0.1,1.1,0.5V9.4c-0.3-0.5-0.3-0.7-0.2-1.1c0-0.4,0.2-0.6,0.6-0.7c0.4,0,0.5,0.3,0.6,0.7
		c0,0.4,0.1,0.6-0.2,1.1v0.5c0.3-0.3,0.8-0.5,1.1-0.5c-0.2,0.9-0.6,1.1-1.1,1.2v0.8c0.4-0.3,1-0.7,1.4-0.8c-0.3,1.1-0.8,1.6-1.4,1.6
		v0.7c0.5-0.3,1.3-0.9,1.8-1c-0.3,1.2-1,1.6-1.8,1.7v0.7c0.5-0.3,1.2-0.8,1.8-0.9c-0.3,1.1-1.1,1.8-1.8,1.9v0.6
		c0.5-0.3,1.2-0.8,1.8-0.9c-0.3,1.2-1,1.8-1.8,1.9v0.5c0.6-0.3,1.5-0.9,2.2-1c-0.4,1.3-1.3,1.9-2.2,2v0.5c0.3-0.3,1-0.5,1.3-0.6
		c-0.2,0.9-0.9,1.2-1.3,1.3v1c0.1,0,0.2,0,0.3,0c0-0.4,0.2-0.7,0.6-1c0,0.3-0.1,0.7-0.2,0.9c0.2-0.1,0.5-0.1,0.7-0.2
		c-0.1-0.5,0-1.2,0.6-1.8c0.1,0.4,0,1,0,1.5c0.3-0.2,0.5-0.3,0.8-0.6c-0.3-0.5-0.2-1.2,0.3-2c0.2,0.4,0.2,1.1,0.2,1.5
		c0.2-0.2,0.5-0.5,0.7-0.8c-0.4-0.5-0.4-0.9,0.1-1.8c0.2,0.4,0.3,0.9,0.3,1.4c0.2-0.3,0.3-0.5,0.5-0.8c-0.1-0.2-0.1-0.4,0.1-0.6
		s0.4-0.4,0.7-0.3c0.3,0.1,0.2,0.5,0,0.8c-0.1,0.2-0.2,0.3-0.5,0.3c-0.2,0.3-0.4,0.6-0.6,0.9C21.8,18,22.1,18.1,22.4,18.5z"/>
	<g>
		<path class="st0" d="M34.2,31.7c0-0.2-0.4-0.5-0.9-0.8c0,0.4,0,0.9,0,1.4C34.1,32,34.2,31.8,34.2,31.7z"/>
		<path class="st0" d="M30.8,28.1c0,0.4,0.6,0.7,1.4,1.1c0-1-0.1-1.8-0.1-2.5C31.1,27.3,30.7,27.7,30.8,28.1z"/>
		<path class="st0" d="M33,34c0-0.2,0-0.4,0-0.6l0,0v-1l0,0c0-0.5,0-1.1,0-1.6c-0.2-0.1-0.3-0.2-0.5-0.2c0,0.9,0,1.9,0.1,3
			C32.6,33.8,32.9,33.9,33,34z"/>
		<path class="st0" d="M30.8,11.7h0.1v-0.1c0-0.1,0-0.1-0.1-0.2c-0.1-0.1-0.2-0.1-0.3,0v0.1c0,0.1,0,0.1,0.1,0.2
			C30.6,11.7,30.7,11.7,30.8,11.7z"/>
		<path class="st0" d="M30.4,12.5c0.1,0,0.1,0,0.1-0.1s0-0.2-0.1-0.2c-0.1-0.1-0.2,0-0.3,0v0.1c0,0.1,0.1,0.1,0.1,0.1
			C30.3,12.5,30.3,12.5,30.4,12.5z"/>
		<path class="st0" d="M30.2,12.8c-0.5-0.2-0.6-0.4-0.6-0.6c0-0.1,0-0.1-0.1-0.1h-0.1c-0.2,0-0.7,0.1-0.9,0.5
			c-0.2,0.4-0.1,1.5,2.6,3.9c0.2,0.2,0.4,0.4,0.6,0.5v-3.9C31.3,13.1,30.9,13,30.2,12.8z"/>
		<path class="st0" d="M32.6,13l0.7,0.2V12l-1.4-0.8V12c0.2,0.3,0.4,0.6,0.4,0.8L32.6,13z"/>
		<path class="st0" d="M40.2,6.4h-15v37.2v1.9c1.1-0.6,2.1-1.3,3.1-1.9C46.3,31.2,41.6,9.7,40.2,6.4z M36.3,23.2
			c-0.2,1.1-1.3,1.9-3.1,2.8c0,1.1,0,2.3,0,3.6c0.1,0,0.2,0.1,0.3,0.1c1.6,0.7,1.9,1.4,1.8,1.9c-0.1,0.9-1.1,1.5-2.1,1.7
			c0,0.3,0,0.5,0,0.8c0.3,0.2,0.5,0.5,0.5,0.9c0,0.3-0.2,0.5-0.4,0.7c0,0.1,0,0.2,0,0.2c-0.1,0.3-0.2,0.4-0.5,0.4
			c-0.2,0-0.4-0.1-0.5-0.3c-0.1,0-0.1,0-0.2,0.1c-0.2,0.1-0.3,0.1-0.4,0.1s-0.2-0.1-0.2-0.1c-0.1-0.1,0-0.2,0.1-0.4
			c0.2-0.2,0.3-0.3,0.6-0.5c0-0.2,0-0.4,0-0.6c-0.1,0-0.2-0.1-0.3-0.1c-0.6-0.4-0.8-0.7-0.7-1.1c0.1-0.5,0.7-0.8,1-0.9
			c0-0.7,0-1.5,0-2.1c-0.3-0.1-0.7-0.3-1-0.4c-1.5-0.6-1.8-1.4-1.7-2c0-1.3,1.4-2.5,2.5-2.9c-0.3-3.6-0.7-4.3-1.1-4.6l-0.1-0.1
			l0.5-1.1l0.5,0.3v-0.8c-0.3-0.3-0.6-0.6-0.9-0.8c-0.4-0.4-2.1-2.2-2.3-2.4c-0.3-0.4-0.8-1.1-1-1.8c-0.3-0.8-0.2-1.7,0.2-2.2
			c0.4-0.6,1.2-0.8,2.1-0.6c0.2,0.1,0.3,0.1,0.5,0c0.1,0,0.2,0,0.3,0c0.2,0,0.4,0.1,0.6,0.2c0.1,0.1,0.3,0.2,0.5,0.4v-1l1.9,1.1v1.6
			c0.2-0.3,0.6-0.7,1-0.8h0.1l0.3,1.7H35c-0.7,0.6-1.1,1.4-1.4,4.2C35.6,20.8,36.5,22.1,36.3,23.2z"/>
		<path class="st0" d="M33.3,24.5c1-0.5,1.5-0.9,1.6-1.5c0.1-0.8-0.6-1.6-1.5-2.5C33.3,21.6,33.3,22.9,33.3,24.5z"/>
		<path class="st0" d="M31.9,19.2v1l-0.6-0.4L31,20.4c0.5,0.4,1.1,1.2,1.4,8.9c0.2,0.1,0.4,0.2,0.6,0.2c0-4.2,0-7.1,0.1-9.2
			c-0.3-0.2-0.5-0.5-0.8-0.8C32.2,19.4,32.1,19.3,31.9,19.2z"/>
		<path class="st0" d="M34.7,14.3L34.5,13c-0.4,0.2-0.8,0.7-0.9,1h-0.3v-0.7L33,13.4v0.4h-0.1l-0.4-0.7L32.1,13
			c-0.1,0-0.1,0.1-0.2,0.1v4.1c0.5,0.4,0.9,0.9,1.3,1.2C33.5,15.8,33.9,15,34.7,14.3z"/>
		<path class="st0" d="M33,35.8v-0.5c0-0.4-0.2-0.4-0.5-0.5c0,0.3,0,0.7,0,1.1l0,0c0.1,0.1,0.2,0.2,0.2,0.2C32.9,36.1,33,36,33,35.8
			C33,35.9,33,35.8,33,35.8L33,35.8z"/>
	</g>
	<g>
		<rect x="15.4" y="27.3" class="st0" width="2.7" height="1"/>
		<rect x="15.4" y="29.3" class="st0" width="1" height="2.7"/>
		<rect x="18.9" y="27.3" class="st0" width="1" height="2.7"/>
		<rect x="19.2" y="32.8" class="st0" width="0.8" height="0.8"/>
		<rect x="17.2" y="29.2" class="st0" width="0.8" height="0.8"/>
		<path class="st0" d="M8.8,23.5c1.2,6.8,4.7,14.4,12.9,20c1,0.7,2,1.3,3.1,1.9v-1.9v-20H8.8z M22.8,36.4h-6.3v-3.6h-2v-6.3h6.3v3.6
			h2V36.4z"/>
		<rect x="19.2" y="34.4" class="st0" width="2.7" height="1"/>
		<rect x="20.8" y="30.9" class="st0" width="1" height="2.7"/>
		<rect x="17.4" y="32.8" class="st0" width="1" height="2.7"/>
		<rect x="17.3" y="31" class="st0" width="2.7" height="1"/>
	</g>
</g>
</svg>
