<?xml version="1.0" encoding="utf-8"?>
<!-- Generator: Adobe Illustrator 20.0.0, SVG Export Plug-In . SVG Version: 6.00 Build 0)  -->
<svg version="1.1" id="Layer_1" xmlns="http://www.w3.org/2000/svg" xmlns:xlink="http://www.w3.org/1999/xlink" x="0px" y="0px"
	 viewBox="0 0 50 50" style="enable-background:new 0 0 50 50;" xml:space="preserve">
<style type="text/css">
	.st0{fill:#2BA8A0;}
	.st1{fill:#717276;}
</style>
<title>Artboard 1</title>
<path class="st0" d="M31.3,6.8v12h12.1v12.3h-3.6c0-0.2,0-0.5,0.1-0.7c0.2-1.8-0.5-3.6-1.9-4.8c-1.7-1.4-3.6-2.6-5.7-3.4
	c-2.5-1-5.1-2-7.7-3c-0.9-0.3-1.9-0.8-2.7-1.3c-2.9-2-3.7-5.9-1.7-8.8c0.2-0.3,0.4-0.6,0.7-0.9c1-0.9,2.2-1.5,3.5-1.6
	c0.1,0,0.2-0.1,0.4-0.1C26.9,6.7,29.1,6.8,31.3,6.8z"/>
<path class="st1" d="M19,43.5V31.4H6.7V19.1h3.8c0,0.4-0.1,0.8-0.1,1.3c0,1.7,0.8,3.2,2.1,4.3c1.3,1.1,2.7,2,4.3,2.6
	c2,0.9,4.1,1.6,6.1,2.5c1.6,0.7,3.2,1.4,4.7,2.1c2.1,1,3.5,3.1,3.5,5.5c0.1,2.9-1.9,5.5-4.8,6c-0.3,0.1-0.7,0.1-1,0.1h-6
	C19.1,43.6,19,43.5,19,43.5z"/>
<path class="st1" d="M12.9,16.7c-0.2,1.1-0.2,2.3,0.2,3.4c0.5,1.4,1.5,2.5,2.8,3.2c1.6,1,3.4,1.9,5.2,2.6c2.6,1.1,5.2,2.1,7.7,3.2
	c0.8,0.4,1.6,0.8,2.3,1.4c1.5,0.9,2.4,2.4,2.7,4.1c0.1,0.9,0.1,1.9-0.1,2.8c0,0.1,0,0.1-0.1,0.2l-1.2,1.2c0.1-0.7,0.2-1.4,0.3-2.1
	c0.2-2.2-0.8-4.3-2.6-5.5c-1.4-0.9-2.9-1.7-4.5-2.2c-2.5-1-5-2-7.5-3.1c-1.4-0.6-2.7-1.4-3.9-2.2c-1.4-0.9-2.3-2.4-2.4-4v-0.3
	C11.3,18.3,11.8,17.1,12.9,16.7z"/>
<path class="st1" d="M17.9,11.6c-0.1,0.7-0.2,1.5-0.3,2.2c-0.2,1.8,0.6,3.6,2.1,4.7c1.5,1.1,3.1,2,4.9,2.7c2.6,1,5.1,2.1,7.7,3.2
	c1,0.4,2,0.9,2.9,1.5c2.3,1.3,3.5,3.7,3.3,6.3c0,0.2-0.1,0.4-0.3,0.6c-0.2,0.3-0.5,0.6-0.8,0.8h-0.1c0-0.2,0-0.5,0.1-0.7
	c0.2-1.4-0.1-2.9-0.8-4.1c-0.7-1-1.7-1.8-2.8-2.4c-2.5-1.3-5.1-2.4-7.8-3.4c-2.3-0.8-4.5-1.9-6.6-3.2c-1.5-1-2.5-2.5-2.9-4.2
	c-0.1-0.9-0.1-1.8,0-2.7c0-0.1,0-0.1,0.1-0.2C17,12.4,17.4,12,17.9,11.6L17.9,11.6z"/>
<path class="st1" d="M35,36c0-0.6,0.1-1.2,0.1-1.8c0.1-1.9-0.8-3.7-2.4-4.8c-1.6-1.2-3.3-2.1-5.1-2.7L20.6,24
	c-1.6-0.6-3.1-1.5-4.5-2.6c-1.7-1.4-2.6-3.5-2.2-5.7c0-0.2,0.1-0.4,0.2-0.5l0.9-0.9c-0.1,0.4-0.1,0.8-0.2,1.2
	c-0.2,2.1,0.7,4.1,2.3,5.4c1.2,0.9,2.5,1.7,3.9,2.2c2.4,1,4.8,1.9,7.2,2.9c1.6,0.7,3.1,1.5,4.6,2.5c2.2,1.4,3.3,3.9,3,6.4
	c0,0.2-0.2,0.4-0.3,0.6S35.3,35.8,35,36z"/>
</svg>
