<svg id="Layer_1" data-name="Layer 1" xmlns="http://www.w3.org/2000/svg" viewBox="0 0 50 50"><defs><style>.cls-1{fill:#809cff;}</style></defs><title>Artboard 1</title><path class="cls-1" d="M31.25,6.78v12h12.1v12.3h-3.6a2,2,0,0,1,.1-.7,5.52,5.52,0,0,0-1.9-4.8,20.52,20.52,0,0,0-5.7-3.4c-2.5-1-5.1-2-7.7-3a13.43,13.43,0,0,1-2.7-1.3,6.36,6.36,0,0,1-1-9.7,6,6,0,0,1,3.5-1.6c.1,0,.2-.1.4-.1A47.15,47.15,0,0,0,31.25,6.78Z"/><path class="cls-1" d="M18.95,43.48V31.38H6.65V19.08h3.8c0,.4-.1.8-.1,1.3a5.76,5.76,0,0,0,2.1,4.3,13.75,13.75,0,0,0,4.3,2.6c2,.9,4.1,1.6,6.1,2.5,1.6.7,3.2,1.4,4.7,2.1a6.09,6.09,0,0,1,3.5,5.5,5.87,5.87,0,0,1-4.8,6,3.4,3.4,0,0,1-1,.1h-6C19.15,43.58,19,43.48,18.95,43.48Z"/><path class="cls-1" d="M12.85,16.68a6.51,6.51,0,0,0,.2,3.4,6.23,6.23,0,0,0,2.8,3.2,31.56,31.56,0,0,0,5.2,2.6c2.6,1.1,5.2,2.1,7.7,3.2a10.89,10.89,0,0,1,2.3,1.4,5.84,5.84,0,0,1,2.7,4.1,8.78,8.78,0,0,1-.1,2.8c0,.1,0,.1-.1.2l-1.2,1.2a15.17,15.17,0,0,0,.3-2.1,5.83,5.83,0,0,0-2.6-5.5,20.81,20.81,0,0,0-4.5-2.2c-2.5-1-5-2-7.5-3.1a30,30,0,0,1-3.9-2.2,5,5,0,0,1-2.4-4v-.3A2.11,2.11,0,0,1,12.85,16.68Z"/><path class="cls-1" d="M17.85,11.58c-.1.7-.2,1.5-.3,2.2a5.15,5.15,0,0,0,2.1,4.7,19.62,19.62,0,0,0,4.9,2.7c2.6,1,5.1,2.1,7.7,3.2a15.93,15.93,0,0,1,2.9,1.5,6.51,6.51,0,0,1,3.3,6.3.86.86,0,0,1-.3.6,3,3,0,0,1-.8.8h-.1a1.7,1.7,0,0,1,.1-.7,6,6,0,0,0-.8-4.1,8.14,8.14,0,0,0-2.8-2.4A59.42,59.42,0,0,0,26,23a33.49,33.49,0,0,1-6.6-3.2,6.64,6.64,0,0,1-2.9-4.2,8.16,8.16,0,0,1,0-2.7.35.35,0,0,1,.1-.2c.4-.3.8-.7,1.3-1.1Z"/><path class="cls-1" d="M34.95,36c0-.6.1-1.2.1-1.8a5.35,5.35,0,0,0-2.4-4.8,19.17,19.17,0,0,0-5.1-2.7L20.65,24a17,17,0,0,1-4.5-2.6,6,6,0,0,1-2.2-5.7.76.76,0,0,1,.2-.5l.9-.9c-.1.4-.1.8-.2,1.2a6.2,6.2,0,0,0,2.3,5.4,15,15,0,0,0,3.9,2.2c2.4,1,4.8,1.9,7.2,2.9a29.4,29.4,0,0,1,4.6,2.5,6.53,6.53,0,0,1,3,6.4c0,.2-.2.4-.3.6s-.3.3-.6.5Z"/></svg>