<?xml version="1.0" encoding="utf-8"?>
<!-- Generator: Adobe Illustrator 20.0.0, SVG Export Plug-In . SVG Version: 6.00 Build 0)  -->
<svg version="1.1" id="Layer_1" xmlns="http://www.w3.org/2000/svg" xmlns:xlink="http://www.w3.org/1999/xlink" x="0px" y="0px"
	 viewBox="0 0 50 50" style="enable-background:new 0 0 50 50;" xml:space="preserve">
<style type="text/css">
	.st0{fill:#052049;}
</style>
<title>Artboard 2</title>
<path class="st0" d="M50,23.4v-3.1H38.6v11.1c0-1.2-0.6-2.3-1.5-3c-0.8-0.6-1.8-1-2.8-1.2l-2.9-0.7c-0.7-0.2-1.5-0.4-2.2-0.7
	c-0.3-0.2-0.5-0.4-0.7-0.7l0,0c-0.1-0.2-0.1-0.4-0.1-0.6c0-0.5,0.2-0.9,0.5-1.3l0,0c0.1-0.1,0.2-0.1,0.3-0.2
	c0.7-0.4,1.4-0.6,2.2-0.5c0.7,0,1.4,0.1,2,0.4c0.8,0.4,1.3,1.2,1.3,2H38c0-1.5-0.7-3-1.9-3.9c-1.3-0.9-2.8-1.4-4.4-1.4
	c-1.7-0.1-3.4,0.4-4.7,1.5c-0.6,0.6-1.1,1.3-1.4,2.1l0,0c-0.1,0.2-0.1,0.3-0.1,0.5l0,0c-0.2,1.8-1.8,3.2-3.6,3.1
	c-3.3,0-4.4-2.8-4.4-5.4c0-2.9,1.2-5.6,4.4-5.6c1.7-0.1,3.2,1.1,3.5,2.9h3.4c-0.4-3.7-3.4-5.8-7-5.8c-4.8,0-7.7,3.4-8,8v-7.6h-3.5
	v10.1c0,2.5-0.8,3.5-3.3,3.5c-2.8,0-3.3-1.8-3.3-3.5V13.3H0v10.1C0,27.9,2.6,30,6.9,30s7-2.2,7-6.5v-1.3c0.3,4.4,3.1,7.8,8,7.8
	c1.8,0.1,3.6-0.6,4.9-1.8c0.1,0.1,0.2,0.1,0.2,0.2c1.1,0.6,2.3,1.1,3.5,1.3l1.8,0.4c0.8,0.1,1.6,0.4,2.3,0.8
	c0.5,0.3,0.7,0.8,0.7,1.3c0,0.9-0.6,1.7-1.5,1.9c-0.6,0.2-1.3,0.3-2,0.3c-1.4,0-2.4-0.3-2.9-1c-0.3-0.5-0.5-1.1-0.6-1.7h-3.2
	c-0.1,1.6,0.6,3,1.9,4c1.4,1.1,3.2,1.6,5,1.5c1.7,0.1,3.4-0.4,4.8-1.5c1-0.8,1.6-2,1.7-3.3v4.5H42v-6.7h6.8v-3H42v-3.7H50z"/>
</svg>
