<svg id="Layer_1" data-name="Layer 1" xmlns="http://www.w3.org/2000/svg" viewBox="0 0 50 50"><defs><style>.cls-1{fill:#809cff;}</style></defs><title>Artboard 2</title><path class="cls-1" d="M50,23.38V20.32H38.58V31.45a4,4,0,0,0-1.48-3.05,7.23,7.23,0,0,0-2.76-1.18l-2.85-.69a14.21,14.21,0,0,1-2.17-.69,2.3,2.3,0,0,1-.69-.69h0a1.25,1.25,0,0,1-.1-.59A2.07,2.07,0,0,1,29,23.28h0c.1-.1.2-.1.3-.2a3.54,3.54,0,0,1,2.17-.49,3.9,3.9,0,0,1,2,.39A2.19,2.19,0,0,1,34.74,25H38a5.05,5.05,0,0,0-1.87-3.94,7.2,7.2,0,0,0-4.43-1.38A6.8,6.8,0,0,0,27,21.21a4.79,4.79,0,0,0-1.38,2.07h0a.89.89,0,0,0-.1.49h0a3.55,3.55,0,0,1-3.64,3.15c-3.25,0-4.43-2.76-4.43-5.41,0-2.85,1.18-5.61,4.43-5.61a3.44,3.44,0,0,1,3.54,2.85h3.44c-.39-3.74-3.44-5.81-7-5.81-4.82,0-7.68,3.44-8,8V13.34H10.33V23.47C10.33,25.94,9.55,27,7,27c-2.85,0-3.35-1.77-3.35-3.54V13.34H0V23.47C0,27.9,2.56,30,6.89,30s7-2.17,7-6.5V22.19c.3,4.43,3.15,7.78,8,7.78a7,7,0,0,0,4.92-1.77c.1.1.2.1.2.2a10.82,10.82,0,0,0,3.54,1.28l1.77.39a7.43,7.43,0,0,1,2.26.79,1.34,1.34,0,0,1,.69,1.28A1.87,1.87,0,0,1,33.76,34a5.53,5.53,0,0,1-2,.3c-1.38,0-2.36-.3-2.85-1a3.32,3.32,0,0,1-.59-1.67H25.1A4.52,4.52,0,0,0,27,35.58a7.63,7.63,0,0,0,5,1.48,7.07,7.07,0,0,0,4.82-1.48,4.45,4.45,0,0,0,1.67-3.35v4.53H42V30.07h6.79v-3H42V23.38Z"/></svg>