<?xml version="1.0" encoding="utf-8"?>
<!-- Generator: Adobe Illustrator 20.0.0, SVG Export Plug-In . SVG Version: 6.00 Build 0)  -->
<svg version="1.1" id="Layer_1" xmlns="http://www.w3.org/2000/svg" xmlns:xlink="http://www.w3.org/1999/xlink" x="0px" y="0px"
	 viewBox="0 0 50 50" style="enable-background:new 0 0 50 50;" xml:space="preserve">
<style type="text/css">
	.st0{fill:#060E9F;}
	.st1{fill:#778692;}
</style>
<title>unitedhealthcare</title>
<path class="st0" d="M17.8,43.2h0.5h0.1h0h0.1h0.1h0.1h0h0.1h0L19,43h0h0.1h0h0.1h0l0.1-0.1h0l0.1-0.1h0l0.1-0.1h0l0.1-0.1h0.1
	l0.1-0.1l0,0l0.1-0.1l0-0.1l0.1-0.1l0.1-0.1l0.1-0.1l0.1-0.1l0.1-0.1l0.1-0.1l0.1-0.1l0.1-0.1l0.1-0.2l0.1-0.1l0.1-0.2l0.1-0.1
	l0.1-0.2c0,0,0.1-0.1,0.1-0.1l0.1-0.2l0.1-0.1l0.1-0.2l0.1-0.2l0.1-0.2l0.1-0.2l0.1-0.2c0-0.1,0-0.1,0.1-0.2l0.1-0.2l0.1-0.2
	c0-0.1,0.1-0.2,0.1-0.2l0.1-0.3l0-0.2l0.1-0.5c0.6-2.3,0.8-6.9,0.8-10v-20L14,13v20.2c0,7.7,1.4,9.6,3.1,9.9l0,0L17.8,43.2z"/>
<path class="st1" d="M20.2,45.3c3.8-0.5,6-4.7,6.5-6.8c0.8-3.4,1.1-6.9,1-10.4V5.7l-4,2.2l2.1,0.5v18c0,4.6-0.1,8.7-0.9,11.4
	c-1.1,3.8-3,5.3-4.3,5.8l-3.4-0.4l0,0c0.3,1,1.1,1.8,2.2,2.1L20.2,45.3z"/>
<path class="st1" d="M19.3,45.2c0.4,0.9,1.2,1.7,2.1,1.9l0.9,0.1c4,0,6.5-3.9,7.5-5.9c1.3-3,2-7.3,2-13.4V3.4l-4.1,2.2l2.2,0.5V27
	c0,5.2-0.2,9.6-1.5,12.9c-1.1,2.8-3.1,5-5.5,5.7l-2.7-0.3L19.3,45.2z"/>
<path class="st1" d="M31.8,3.4L34,3.9V27c0,7.1-0.7,11.9-2.3,15.2c-1.5,3-4,5-6.3,5.4l-3.1-0.4l-0.9-0.1c0.7,1.2,2,2,3.4,2
	c1.8,0,3.5-0.6,5-1.7c4.7-3.3,6.2-10.5,6.2-20.2v-26L31.8,3.4z"/>
</svg>
