<svg id="Layer_1" data-name="Layer 1" xmlns="http://www.w3.org/2000/svg" viewBox="0 0 50 50"><defs><style>.cls-1{fill:#809cff;}</style></defs><title>unitedhealthcare</title><path class="cls-1" d="M17.76,43.17h.52l.08,0h.05l.09,0,.06,0,.1,0,.05,0,.11,0,.05,0L19,43l.05,0,.11,0,.05,0,.11,0,.05,0,.12-.06.05,0,.12-.06.05,0,.12-.07.05,0,.12-.09.06,0,.12-.1.05-.05.12-.1.05-.06.12-.11.06-.07.11-.12.07-.08.11-.13.07-.09.11-.14.07-.09.11-.15.07-.1.1-.16.07-.11.1-.17a.7.7,0,0,0,.07-.12l.11-.17.07-.14.1-.19.08-.16.09-.19.08-.18.08-.19c0-.06,0-.12.07-.19l.08-.2.07-.19c0-.07.06-.15.08-.22l.09-.27.05-.17.14-.46c.63-2.29.79-6.92.79-10V7.82L14,13V33.24c0,7.73,1.39,9.58,3.11,9.88h0Z"/><path class="cls-1" d="M20.16,45.25c3.79-.51,6-4.71,6.51-6.78a38.45,38.45,0,0,0,1-10.41V5.65l-4,2.17,2.13.48v18c0,4.64-.11,8.69-.86,11.39-1.06,3.8-3,5.34-4.33,5.84l-3.43-.38h0a3,3,0,0,0,2.2,2.08Z"/><path class="cls-1" d="M19.31,45.2a3.23,3.23,0,0,0,2.15,1.93l.88.08c4,0,6.54-3.9,7.47-5.92,1.34-3,2-7.25,2-13.39V3.44L27.67,5.65l2.18.48V27c0,5.21-.21,9.63-1.47,12.94-1.11,2.84-3.1,5-5.54,5.65l-2.68-.32Z"/><path class="cls-1" d="M31.79,3.44,34,3.94V27c0,7.08-.72,11.91-2.3,15.17-1.47,3.05-4,5-6.31,5.43l-3.07-.37-.88-.08a4.07,4.07,0,0,0,3.43,2,8.19,8.19,0,0,0,4.95-1.74C34.49,44.11,36,36.91,36,27.18V1.2Z"/></svg>