<?xml version="1.0" encoding="utf-8"?>
<!-- Generator: Adobe Illustrator 20.0.0, SVG Export Plug-In . SVG Version: 6.00 Build 0)  -->
<svg version="1.1" id="Layer_1" xmlns="http://www.w3.org/2000/svg" xmlns:xlink="http://www.w3.org/1999/xlink" x="0px" y="0px"
	 viewBox="0 0 216 216" style="enable-background:new 0 0 216 216;" xml:space="preserve">
<style type="text/css">
	.st0{fill:#352852;}
	.st1{fill:#809CFF;}
	.st2{fill:#FFFFFF;}
</style>
<polygon class="st0" points="85.5,199.3 29.6,141.6 29.6,36 85.5,80.4 "/>
<path class="st1" d="M186.4,134.9V24.3c0-3.7-3-6.7-6.7-6.7H29.6v17.4l0,0l0,106.7h150.1C183.4,141.6,186.4,138.6,186.4,134.9z"/>
<path class="st2" d="M101.4,119.8c26.5,4.9,45.9-20.8,58.4-43c5-8.9,12.5-32.2,4.1-41c-7.7-8.5-13.7,2.7-18.3,6.4l3.5,4.2
	c7.1,8.9,0.9,25.9-3.3,35c-6.3,11.2-18.2,28.1-32.1,25.7c-3-0.7-5.5-3.6-6.6-6.7c7.5-7.4,16.3-20.4,21.3-29.1
	c4.2-7.1,11.4-20.7,4.7-26.3c-5.5-3.8-16.6,1.7-22.6,6.7c-3.6,3.3-6.1,5.9-8.9,9.7c-7.6,10.4-14.9,28.1-14.2,41.8
	c-3.7,2.7-7.9,5.3-12.9,3.8c-4.9-1.1-5.8-5.3-6.5-8.6C65,78.6,84.9,53.6,96.1,39.2c0,0-8.8,2.4-15.2,2.7
	c-14.8,0.6-25.7-6.2-33.7,3.6c-2.4,3.5-3.8,7.2-4.2,11.6c3.3-2.8,8.1-2.1,12.8-1.8c8,0.7,12,1.7,19.2-0.3
	c-6.4,9.1-17.1,27-19.1,38.1c-1,7.4-0.9,19.1,5.4,24.3c10.5,7,20.9,2.1,30.2-4.3C94.1,116.3,97.5,119.1,101.4,119.8z M119.2,57.8
	c2.8-1.4,1.9,2.8,1.9,2.8c-0.4,4.7-3.8,10.3-6.2,14.6c-2.5,4.4-11.3,14.8-15.1,17c0.2-6.3,6.9-20,10.3-25.2
	C112,63.9,116.4,59.2,119.2,57.8z"/>
</svg>
