<svg id="Layer_1" data-name="Layer 1" xmlns="http://www.w3.org/2000/svg" viewBox="0 0 50 50"><defs><style>.cls-1{fill:#809cff;}</style></defs><title>walmart_1</title><path class="cls-1" d="M25,8.07c-1.29,0-2.31.72-2.31,1.6l.78,8.86a1.45,1.45,0,0,0,1.53.95,1.45,1.45,0,0,0,1.53-.95l.79-8.86c0-.88-1-1.6-2.32-1.6ZM12.25,15.18a2.48,2.48,0,0,0-1.91,1.36c-.65,1.12-.53,2.36.22,2.8l8.06,3.75a1.46,1.46,0,0,0,1.58-.85h0a1.44,1.44,0,0,0-.05-1.8l-7.28-5.11a1.18,1.18,0,0,0-.62-.15Zm25.5,0a1.17,1.17,0,0,0-.62.15l-7.28,5.11a1.45,1.45,0,0,0-.05,1.8h0a1.46,1.46,0,0,0,1.58.85l8.07-3.75c.76-.44.87-1.68.23-2.8a2.49,2.49,0,0,0-1.92-1.36ZM18.92,26.86a.82.82,0,0,0-.3.05l-8.06,3.75c-.76.44-.87,1.69-.22,2.8s1.78,1.64,2.54,1.21l7.28-5.1a1.45,1.45,0,0,0,.05-1.8h0a1.65,1.65,0,0,0-1.29-.9Zm12.15,0a1.65,1.65,0,0,0-1.29.9h0a1.46,1.46,0,0,0,.05,1.8l7.28,5.1c.75.44,1.89-.09,2.54-1.21s.53-2.36-.23-2.8l-8.06-3.75a.82.82,0,0,0-.3-.05ZM25,30.53a1.44,1.44,0,0,0-1.53.94l-.78,8.86c0,.88,1,1.6,2.31,1.6s2.32-.72,2.32-1.6l-.78-8.86A1.45,1.45,0,0,0,25,30.53h0Z"/></svg>