<?xml version="1.0" encoding="utf-8"?>
<!-- Generator: Adobe Illustrator 20.1.0, SVG Export Plug-In . SVG Version: 6.00 Build 0)  -->
<svg version="1.1" id="Layer_1" xmlns="http://www.w3.org/2000/svg" xmlns:xlink="http://www.w3.org/1999/xlink" x="0px" y="0px"
	 viewBox="0 0 9.1 11.6" style="enable-background:new 0 0 9.1 11.6;" xml:space="preserve">
<g>
	<path d="M2.1,4.2C2,3.9,2,3.6,2,3.4c0-0.6,0.2-1,0.6-1.4C2.9,1.6,3.4,1.4,4,1.4c0.6,0,1.1,0.2,1.4,0.5c0.3,0.3,0.5,0.7,0.5,1.2
		c0,0.6-0.2,1-0.5,1.4c-0.2,0.2-0.5,0.5-1,0.8L6,7.3C6.1,7,6.1,6.8,6.2,6.6c0-0.2,0.1-0.6,0.1-0.9h1C7.3,6.3,7.1,6.9,6.9,7.6
		C6.7,8.1,6.6,8.3,6.6,8.2L8.1,10H6.8L6,9C5.6,9.4,5.4,9.6,5.1,9.8c-0.5,0.3-1,0.4-1.6,0.4c-0.9,0-1.5-0.2-1.9-0.7
		C1.1,9,0.9,8.5,0.9,7.9c0-0.7,0.2-1.2,0.6-1.6c0.2-0.3,0.7-0.6,1.3-1C2.5,4.8,2.3,4.5,2.1,4.2z M4.7,9C5,8.8,5.2,8.6,5.4,8.3L3.5,6
		C2.9,6.3,2.6,6.6,2.4,6.8C2.1,7.1,2,7.4,2,7.9c0,0.5,0.2,0.8,0.5,1.1s0.7,0.4,1.1,0.4C4,9.3,4.4,9.2,4.7,9z M4.6,4.1
		c0.2-0.3,0.3-0.6,0.3-0.9c0-0.3-0.1-0.5-0.3-0.7S4.3,2.3,4,2.3c-0.4,0-0.7,0.1-0.9,0.4C3,2.9,3,3,3,3.2c0,0.2,0.1,0.5,0.2,0.7
		c0.1,0.2,0.3,0.5,0.7,0.8C4.2,4.5,4.5,4.3,4.6,4.1z"/>
</g>
</svg>
