<?xml version="1.0" encoding="utf-8"?>
<!-- Generator: Adobe Illustrator 20.1.0, SVG Export Plug-In . SVG Version: 6.00 Build 0)  -->
<svg version="1.1" id="Layer_1" xmlns="http://www.w3.org/2000/svg" xmlns:xlink="http://www.w3.org/1999/xlink" x="0px" y="0px"
	 viewBox="0 0 20.5 20" style="enable-background:new 0 0 20.5 20;" xml:space="preserve">
<path d="M6.6,19.8h6.9c0.7,0,1.5-0.4,1.6-1.1l3-11.2H2.4l2.5,11.2C5.1,19.3,5.8,19.8,6.6,19.8z"/>
<path d="M17,3.3h-3V2.1c0-1.1-0.8-1.9-1.9-1.9H8.3c-1.1,0-1.9,0.8-1.9,1.9v1.2H3.5c-0.6,0-1.1,0.5-1.1,1.1V6h15.6V4.3
	C18.1,3.8,17.6,3.3,17,3.3z M12.5,3.3h-0.3h-4H7.9V2c0-0.2,0.1-0.3,0.3-0.3h4.1c0.1,0,0.2,0.1,0.2,0.2C12.5,1.9,12.5,3.3,12.5,3.3z"
	/>
</svg>
