<?xml version="1.0" encoding="utf-8"?>
<!-- Generator: Adobe Illustrator 21.0.2, SVG Export Plug-In . SVG Version: 6.00 Build 0)  -->
<svg version="1.1" id="Layer_1" xmlns="http://www.w3.org/2000/svg" xmlns:xlink="http://www.w3.org/1999/xlink" x="0px" y="0px"
     viewBox="0 0 98.2 113.8" style="enable-background:new 0 0 98.2 113.8;" xml:space="preserve">

<path d="M73.6,14.6L50.8,1.4c-1-0.6-2.3-0.6-3.3,0L1.8,27.7c-1,0.6-1.7,1.7-1.7,2.9v26.3h17.7h30.5L73.6,14.6z"/>
<path d="M98,83.3V30.7c0-1.2-0.6-2.3-1.7-2.9L73.6,14.6L48.4,57l16,26.6l0,0l9.1,15.8l0,0l22.8-13.2
    C97.4,85.6,98,84.5,98,83.3z"/>
<path d="M1.8,86.2l45.6,26.3c1,0.6,2.3,0.6,3.3,0l22.8-13.2l0,0l-9.1-15.8L48.4,57H17.9H0.2v26.3
    C0.2,84.5,0.8,85.6,1.8,86.2z"/>
</svg>
