<?xml version="1.0" encoding="utf-8"?>
<!-- Generator: Adobe Illustrator 20.1.0, SVG Export Plug-In . SVG Version: 6.00 Build 0)  -->
<svg version="1.1" id="Layer_1" xmlns="http://www.w3.org/2000/svg" xmlns:xlink="http://www.w3.org/1999/xlink" x="0px" y="0px"
	 viewBox="0 0 60.4 71" style="enable-background:new 0 0 60.4 71;" xml:space="preserve">
<g>
	<path d="M11.6,31.9c1.7-8.7,9.4-15.3,18.6-15.3c2.5,0,4.8,0.5,7,1.3l6.1-9.8l-13-7.5L0,18.1v13.7L11.6,31.9z"/>
	<path d="M37.1,53.1c-2.1,0.8-4.5,1.3-6.9,1.3c-9.3,0-17-6.7-18.6-15.6L0,38.8v14.2l30.2,17.4l13-7.5L37.1,53.1z"/>
	<path d="M49.3,11.6l-6.3,10c3.7,3.5,6.1,8.4,6.1,13.9c0,5.5-2.4,10.4-6.1,13.9l6.2,10l11.2-6.5V18.1L49.3,11.6z"/>
</g>
</svg>
