<?xml version="1.0" encoding="utf-8"?>
<!-- Generator: Adobe Illustrator 21.0.2, SVG Export Plug-In . SVG Version: 6.00 Build 0)  -->
<svg version="1.1" id="Layer_1" xmlns="http://www.w3.org/2000/svg" xmlns:xlink="http://www.w3.org/1999/xlink" x="0px" y="0px"
     viewBox="0 0 98.2 113.8" style="enable-background:new 0 0 98.2 113.8;" xml:space="preserve">

<g>
    <path fill="#f96244" d="M47.4,0.4L1.7,27.2C0.8,27.7,0,29,0,30.1v22.2h18.8c2.2-15,15-26.6,30.4-26.6c4.3,0,8.3,0.9,12,2.5l9.3-16.3
        L50.8,0.4C49.8-0.1,48.3-0.1,47.4,0.4z"/>
    <path fill="#ffab01" d="M96.5,27.2L78.2,16.5l-9.4,16.5c6.8,5.7,11.1,14.3,11.1,24c0,9.6-4.3,18.2-11,23.9l9.4,16.5l18.2-10.7
        c0.9-0.5,1.7-1.9,1.7-3V30.1C98.2,29,97.4,27.7,96.5,27.2z"/>
    <path fill="#09c3cc" d="M49.2,88.1c-15.5,0-28.3-11.6-30.4-26.7H0v22.3c0,1.1,0.8,2.4,1.7,3l45.7,26.8c0.9,0.5,2.5,0.5,3.4,0
        l19.7-11.6l-9.3-16.3C57.5,87.2,53.5,88.1,49.2,88.1z"/>
</g>
</svg>
