<?xml version="1.0" encoding="utf-8"?>
<!-- Generator: Adobe Illustrator 21.0.2, SVG Export Plug-In . SVG Version: 6.00 Build 0)  -->
<svg version="1.1" id="Layer_1" xmlns="http://www.w3.org/2000/svg" xmlns:xlink="http://www.w3.org/1999/xlink" x="0px" y="0px"
     viewBox="0 0 50 50" style="enable-background:new 0 0 50 50;" xml:space="preserve">
<path d="M25,0C11.2,0,0,11.2,0,24.9C0,38.8,11.2,50,25,50c13.8,0,25-11.2,25-24.9C50,11.2,38.8,0,25,0z M25,46.4
    C13.1,46.4,3.6,36.8,3.6,25c0-11.9,9.6-21.4,21.5-21.4c11.8,0,21.3,9.6,21.3,21.5C46.4,36.8,36.8,46.4,25,46.4z"/>
<path d="M24.7,7.1c0.3,0,0.9-0.2,1.2,0.1C26,7.5,25.9,8,26,8.4c0.2,4.2,0.4,8.4,0.6,12.6c0.1,1.2,0.1,2.5,0.2,3.7
    c0,0.2,0.1,0.4,0.2,0.5c2.8,3.4,5.6,6.7,8.4,10.1c0.3,0.3,0.3,0.5-0.1,0.8c-0.4,0.4-0.8,0.7-1.1,1.1c-0.2,0.2-0.3,0.3-0.5,0
    c-4-3.4-8-6.9-12-10.3c-0.2-0.2-0.3-0.4-0.3-0.6C22,20.3,22.6,14.2,23.1,8c0.1-0.9,0.1-0.9,1-0.9C24.3,7.1,24.4,7.1,24.7,7.1z"/>
</svg>
