<?xml version="1.0" encoding="utf-8"?>
<!-- Generator: Adobe Illustrator 20.1.0, SVG Export Plug-In . SVG Version: 6.00 Build 0)  -->
<svg version="1.1"
	 id="Layer_1" xmlns:cc="http://creativecommons.org/ns#" xmlns:dc="http://purl.org/dc/elements/1.1/" xmlns:inkscape="http://www.inkscape.org/namespaces/inkscape" xmlns:rdf="http://www.w3.org/1999/02/22-rdf-syntax-ns#" xmlns:sodipodi="http://sodipodi.sourceforge.net/DTD/sodipodi-0.dtd" xmlns:svg="http://www.w3.org/2000/svg"
	 xmlns="http://www.w3.org/2000/svg" xmlns:xlink="http://www.w3.org/1999/xlink" x="0px" y="0px" viewBox="0 0 80 56"
	 style="enable-background:new 0 0 80 56;" xml:space="preserve">
<g transform="translate(0,-952.36218)">
	<path d="M50,952.4c-6.6,0-12.5,2.9-16.5,7.5c-2-0.9-4.1-1.5-6.5-1.5c-8.3,0-15,6.7-15,15c0,1.2,0.2,2.3,0.4,3.4
		c-7.1,1.6-12.4,8-12.4,15.6c0,8.8,7.2,16,16,16h15v-12h-5c-2.1-0.4-2.2-2-1.4-3.4l14-14c1-0.8,1.9-0.5,2.8,0l14,14
		c1.2,1.8,0.2,3-1.4,3.4h-5v12h13c9.9,0,18-8.1,18-18c0-6.3-3.2-11.8-8-15C72,963.4,63,952.4,50,952.4z"/>
</g>
</svg>
