<?xml version="1.0" encoding="utf-8"?>
<!-- Generator: Adobe Illustrator 20.1.0, SVG Export Plug-In . SVG Version: 6.00 Build 0)  -->
<svg version="1.1" id="Layer_1" xmlns="http://www.w3.org/2000/svg" xmlns:xlink="http://www.w3.org/1999/xlink" x="0px" y="0px"
	 viewBox="0 0 32 32" style="enable-background:new 0 0 32 32;" xml:space="preserve">
<path d="M1.7,30.3H16V1.7H1.7V30.3z M10.6,5.2h3.6v3.6h-3.6V5.2z M10.6,12.4h3.6V16h-3.6V12.4z M10.6,19.6h3.6v3.6h-3.6V19.6z
	 M3.5,5.2H7v3.6H3.5V5.2z M3.5,12.4H7V16H3.5V12.4z M3.5,19.6H7v3.6H3.5V19.6z M17.8,10.6h12.5v1.8H17.8V10.6z M17.8,30.3h3.6v-7.2
	h5.4v7.2h3.6V14.2H17.8V30.3z"/>
</svg>
