<?xml version="1.0" encoding="utf-8"?>
<!-- Generator: Adobe Illustrator 21.0.2, SVG Export Plug-In . SVG Version: 6.00 Build 0)  -->
<svg version="1.1" id="Layer_1" xmlns="http://www.w3.org/2000/svg" xmlns:xlink="http://www.w3.org/1999/xlink" x="0px" y="0px"
	 viewBox="0 0 25 25" style="enable-background:new 0 0 25 25;" xml:space="preserve">
<g>
	<path d="M8.8,0.6c-4,1.2-7.1,4.3-8.3,8.3h1.1c1.1-3.4,3.8-6.1,7.2-7.2V0.6z"/>
	<path d="M16.2,0.6v1c3.4,1.1,6.1,3.8,7.2,7.2h1.1C23.2,4.9,20.1,1.8,16.2,0.6z"/>
</g>
<g>
	<path d="M23.4,16.2c-1.1,3.4-3.8,6.1-7.2,7.2v1c4-1.2,7.1-4.3,8.3-8.3H23.4z"/>
	<path d="M8.8,23.4c-3.4-1.1-6.1-3.8-7.2-7.2H0.5c1.2,4,4.3,7.1,8.3,8.3V23.4z"/>
</g>
</svg>
