<?xml version="1.0" encoding="utf-8"?>
<!-- Generator: Adobe Illustrator 21.0.2, SVG Export Plug-In . SVG Version: 6.00 Build 0)  -->
<svg version="1.1" id="Layer_1" xmlns="http://www.w3.org/2000/svg" xmlns:xlink="http://www.w3.org/1999/xlink" x="0px" y="0px"
	 viewBox="0 0 54.2 32" style="enable-background:new 0 0 54.2 32;" xml:space="preserve">
<path d="M0,28.5v-3.8c0-4.5,7.9-6.5,11.9-6.5s11.9,2,11.9,6.5v3.8H0z M12.2,16c-3.5,0-6.4-2.9-6.4-6.4s2.9-6.4,6.4-6.4
	s6.4,2.9,6.4,6.4S15.8,16,12.2,16z"/>
<circle cx="28" cy="12.7" r="5.5"/>
<path d="M28,20.3c-1,0-2.2,0.1-3.5,0.4c1.5,1.5,1.9,3,1.9,4.3v3v0.5H39v-2.7C39,22.1,31.7,20.3,28,20.3z"/>
<circle cx="43.2" cy="12.7" r="5.5"/>
<path d="M43.2,20.3C43.2,20.3,43.2,20.3,43.2,20.3C43.2,20.3,43.2,20.3,43.2,20.3c-1.4,0-3.4,0.3-5.2,0.8c1.9,0.9,3.4,2.2,3.4,3.8
	v3.6h1.8h0h11v-2.7C54.2,22.1,46.9,20.3,43.2,20.3z"/>
</svg>
