<?xml version="1.0" encoding="UTF-8"?>
<svg width="30px" height="40px" viewBox="0 0 30 40" version="1.1" xmlns="http://www.w3.org/2000/svg" xmlns:xlink="http://www.w3.org/1999/xlink">
    <!-- Generator: Sketch 45.2 (43514) - http://www.bohemiancoding.com/sketch -->
    <title>ghost</title>
    <desc>Created with Sketch.</desc>
    <defs></defs>
    <g id="Icons" stroke="none" stroke-width="1" fill="none" fill-rule="evenodd">
        <g id="noun_1054853_cc">
            <path d="M25.7142857,39.9285714 C23.6428571,39.9285714 21.9285714,38.2142857 21.9285714,36.1428571 C21.9285714,35.2142857 21.2142857,34.5 20.2857143,34.5 C19.3571429,34.5 18.6428571,35.2142857 18.6428571,36.1428571 C18.6428571,38.2857143 16.9285714,39.9285714 14.8571429,39.9285714 C12.7857143,39.9285714 11.0714286,38.2142857 11.0714286,36.1428571 L11.0714286,36 C11.0714286,35.1428571 10.4285714,34.5 9.57142857,34.5 C8.71428571,34.5 8.07142857,35.1428571 8.07142857,36 L8.07142857,36.1428571 C8.07142857,38.2142857 6.35714286,39.9285714 4.28571429,39.9285714 L4.28571429,39.9285714 C2.21428571,39.9285714 0.5,38.2142857 0.5,36.1428571 L0.5,14.5714286 C0.5,6.57142857 7,0.0714285714 15,0.0714285714 C23,0.0714285714 29.5,6.57142857 29.5,14.5714286 L29.5,36.1428571 C29.5,38.2142857 27.7857143,39.9285714 25.7142857,39.9285714 Z" id="Shape" fill="#8397A7" fill-rule="nonzero"></path>
            <path d="M20.3571429,32.2857143 C22.4285714,32.2857143 24.1428571,34 24.1428571,36.0714286 C24.1428571,37 24.8571429,37.7142857 25.7857143,37.7142857 C26.7142857,37.7142857 27.4285714,37 27.4285714,36.0714286 L27.4285714,14.5714286 C27.4285714,7.78571429 21.8571429,2.21428571 15.0714286,2.21428571 C8.28571429,2.21428571 2.71428571,7.78571429 2.71428571,14.5714286 L2.71428571,36.0714286 C2.71428571,37 3.42857143,37.7142857 4.35714286,37.7142857 C5.28571429,37.7142857 6,37 6,36.0714286 L6,35.9285714 C6,33.9285714 7.64285714,32.2857143 9.64285714,32.2857143 C11.6428571,32.2857143 13.2857143,33.9285714 13.2857143,35.9285714 L13.2857143,36.0714286 C13.2857143,37 14,37.7142857 14.9285714,37.7142857 C15.8571429,37.7142857 16.5714286,37 16.5714286,36.0714286 C16.6428571,34 18.2857143,32.2857143 20.3571429,32.2857143 Z" id="Path" fill="#FFFFFF"></path>
            <path d="M21.7142857,14.8571429 C21.4285714,14.8571429 21.1428571,14.7857143 20.9285714,14.5714286 C20.2142857,13.8571429 19,13.8571429 18.2857143,14.5714286 C17.8571429,15 17.2142857,15 16.7857143,14.5714286 C16.3571429,14.1428571 16.3571429,13.5 16.7857143,13.0714286 C17.5714286,12.2857143 18.5714286,11.9285714 19.6428571,11.9285714 C20.7142857,11.9285714 21.7142857,12.3571429 22.5,13.0714286 C22.9285714,13.5 22.9285714,14.1428571 22.5,14.5714286 C22.2142857,14.7857143 22,14.8571429 21.7142857,14.8571429 Z" id="Shape" fill="#8397A7" fill-rule="nonzero"></path>
            <path d="M15,20.7857143 C14,20.7857143 12.9285714,20.4285714 12.1428571,19.6428571 C11.7142857,19.2142857 11.7142857,18.5714286 12.1428571,18.1428571 C12.5714286,17.7142857 13.2142857,17.7142857 13.6428571,18.1428571 C14.3571429,18.8571429 15.5714286,18.8571429 16.2857143,18.1428571 C16.7142857,17.7142857 17.3571429,17.7142857 17.7857143,18.1428571 C18.2142857,18.5714286 18.2142857,19.2142857 17.7857143,19.6428571 C17.0714286,20.4285714 16,20.7857143 15,20.7857143 Z" id="Shape" fill="#8397A7" fill-rule="nonzero"></path>
            <path d="M12.4285714,14.8571429 C12.1428571,14.8571429 11.8571429,14.7857143 11.6428571,14.5714286 C10.9285714,13.8571429 9.71428571,13.8571429 9,14.5714286 C8.57142857,15 7.92857143,15 7.5,14.5714286 C7.07142857,14.1428571 7.07142857,13.5 7.5,13.0714286 C8.28571429,12.2857143 9.28571429,11.9285714 10.3571429,11.9285714 C11.4285714,11.9285714 12.4285714,12.3571429 13.2142857,13.0714286 C13.6428571,13.5 13.6428571,14.1428571 13.2142857,14.5714286 C12.9285714,14.7857143 12.7142857,14.8571429 12.4285714,14.8571429 Z" id="Shape" fill="#8397A7" fill-rule="nonzero"></path>
        </g>
    </g>
</svg>