<?xml version="1.0" encoding="utf-8"?>
<!-- Generator: Adobe Illustrator 20.1.0, SVG Export Plug-In . SVG Version: 6.00 Build 0)  -->
<svg version="1.1" id="Layer_1" xmlns="http://www.w3.org/2000/svg" xmlns:xlink="http://www.w3.org/1999/xlink" x="0px" y="0px"
	 viewBox="0 0 36 36" style="enable-background:new 0 0 36 36;" xml:space="preserve">
<path d="M11.4,4.7L6.3,9.8l0.2,2.3l-1,1H3l-2.5,2.5l5.6,5.8l2.5-2.5l0.4-2.3L9.6,16c1.2-1.2,2.9-0.4,4.1,0.6l0,0l4.3-4.3l-2.1-2.1
	c-1.2-1.2-0.8-2.3,0.4-3.5c2.3-2.3,5.6-3.1,9.1-2.9l0.2-1.4C19.4,0.6,14.3,1.8,11.4,4.7z"/>
<path d="M34.9,31.4l-2.7,2.7c-0.8,0.8-1.9,0.6-2.7,0L15.1,18.5l4.3-4.3l15.4,14.4C35.7,29.2,35.7,30.4,34.9,31.4z"/>
</svg>
