<?xml version="1.0" encoding="utf-8"?>
<!-- Generator: Adobe Illustrator 20.1.0, SVG Export Plug-In . SVG Version: 6.00 Build 0)  -->
<svg version="1.1" id="Layer_1" xmlns="http://www.w3.org/2000/svg" xmlns:xlink="http://www.w3.org/1999/xlink" x="0px" y="0px"
	 viewBox="0 0 32 32" style="enable-background:new 0 0 32 32;" xml:space="preserve">

<path d="M16,2.6c7.4,0,13.4,6,13.4,13.4s-6,13.4-13.4,13.4S2.6,23.4,2.6,16S8.6,2.6,16,2.6z M17.2,22.4
	c0.1-1.1-0.8-1.9-1.8-1.9c-1,0-1.9,0.7-1.9,1.8s0.8,1.9,1.8,1.9C16.4,24.2,17.2,23.6,17.2,22.4z M20.3,14.4c0.4-0.6,0.8-1.4,0.8-2.2
	c0-1.4-0.6-2.5-1.6-3.2c-1.1-0.8-2.3-1.1-3.9-1.1c-1.2,0-2.1,0.2-2.9,0.8c-1.2,0.8-1.8,2.1-1.8,4.2H14c0-0.6-0.1-1.2,0.2-1.7
	s0.8-0.9,1.6-0.9s1.2,0.2,1.6,0.7c0.3,0.4,0.5,0.9,0.5,1.4c0,0.4-0.2,0.9-0.5,1.2c-0.1,0.2-0.4,0.4-0.6,0.6c0,0-1.6,0.9-2.2,1.9
	c-0.4,0.7-0.6,1.5-0.6,2.6c0,0.1,0,0.2,0.2,0.2h2.4c0,0,0.3-0.2,0.3-0.2c0-0.4,0.1-0.9,0.1-1.2c0.1-0.4,0.4-0.8,0.8-1.1l0.9-0.6
	C19.5,15.3,20.1,14.8,20.3,14.4L20.3,14.4z"/>
</svg>
