<?xml version="1.0" encoding="utf-8"?>
<!-- Generator: Adobe Illustrator 21.0.2, SVG Export Plug-In . SVG Version: 6.00 Build 0)  -->
<svg version="1.1" id="Layer_1" xmlns="http://www.w3.org/2000/svg" xmlns:xlink="http://www.w3.org/1999/xlink" x="0px" y="0px"
	 viewBox="0 0 39 37.8" style="enable-background:new 0 0 39 37.8;" xml:space="preserve">
<path d="M30.4,8.6h-4.9c-0.4,0-0.6-0.2-0.6-0.6V6.3c0-0.4,0.2-0.6,0.6-0.6h4.9V0.6C30.4,0.2,30.6,0,31,0h1.8c0.4,0,0.6,0.2,0.6,0.6
	v4.9h4.9c0.4,0,0.6,0.2,0.6,0.6v1.8c0,0.4-0.2,0.6-0.6,0.6h-4.9v4.9c0,0.4-0.2,0.6-0.6,0.6H31c-0.4,0-0.6-0.2-0.6-0.6V8.6z"/>
<path d="M22.3,37.8c1,0,1.8-0.8,1.8-1.8V16c0-1-0.8-1.8-1.8-1.8h-20c-1,0-1.8,0.8-1.8,1.8v20c0,1,0.8,1.8,1.8,1.8
	C2.4,37.8,22.3,37.8,22.3,37.8z M7.8,34.3H4.3V23.5h3.5V34.3z M9.6,23.3h3.7v1.2h0.2c0.4-1,1.6-1.6,2.9-1.6c3.3,0,4.1,2.2,4.1,4.9
	v6.3H17v-5.5c0-1.4-0.4-2.9-1.8-2.9s-2,1.6-2,3.1v5.5H9.8L9.6,23.3L9.6,23.3z M6.1,17.6c1.2,0,2.2,1,2.2,2.2S7.3,22,6.1,22
	s-2.2-1-2.2-2.2S4.9,17.6,6.1,17.6z"/>
</svg>
