<?xml version="1.0" encoding="utf-8"?>
<svg version="1.1" id="Layer_1" xmlns="http://www.w3.org/2000/svg" xmlns:xlink="http://www.w3.org/1999/xlink" x="0px" y="0px"
     viewBox="0 0 50 50" style="enable-background:new 0 0 50 50;" xml:space="preserve">
<path d="M43.7,3.4h-37c-1.9,0-3.2,1.3-3.2,3.1v37.1c0,1.4,1.4,2.9,2.8,3H39v0h4.3c1.8,0,3.1-1.3,3.1-3.1V6.4
    C46.9,4.6,45.3,3.4,43.7,3.4z M17.2,40.2h-6.8V20.1h6.8V40.2z M13.4,17.6c-2.2,0-3.9-1.8-3.9-4s1.8-4,3.9-4c2.2,0,4,1.8,4,4
    S15.6,17.6,13.4,17.6z M40.1,40.2h-6.8V30.1c0-2.8-0.6-5.3-3.3-5.3s-3.3,2.8-3.3,5.3V40h-6.8V19.8h7.1v2.5h0.3
    c1-1.5,3.1-3.1,5.6-3.1c6.1,0,7.4,4,7.4,8.9V40.2z"/>
</svg>
