<?xml version="1.0" encoding="utf-8"?>
<!-- Generator: Adobe Illustrator 21.0.2, SVG Export Plug-In . SVG Version: 6.00 Build 0)  -->
<svg version="1.1" id="Layer_1" xmlns="http://www.w3.org/2000/svg" xmlns:xlink="http://www.w3.org/1999/xlink" x="0px" y="0px"
     viewBox="0 0 50 50" style="enable-background:new 0 0 50 50;" xml:space="preserve">
<path d="M44.7,2.2h-39c-2.1,0-3.4,1.3-3.4,3.2v39.1c0,1.5,1.4,3,2.9,3.2h34.4v0h4.6c1.9,0,3.2-1.3,3.2-3.2V5.4
    C48.1,3.5,46.3,2.2,44.7,2.2z M16.7,41H9.6V19.8h7.2V41z M12.8,17.2c-2.3,0-4.1-1.9-4.1-4.2s1.9-4.2,4.1-4.2c2.3,0,4.2,1.9,4.2,4.2
    S15.1,17.2,12.8,17.2z M40.9,41h-7.2V30.3c0-2.9-0.6-5.6-3.5-5.6s-3.5,2.9-3.5,5.6v10.4h-7.2V19.5H27v2.6h0.3c1-1.6,3.2-3.2,5.9-3.2
    c6.4,0,7.8,4.2,7.8,9.4V41z"/>
</svg>
