<?xml version="1.0" encoding="utf-8"?>
<!-- Generator: Adobe Illustrator 21.0.2, SVG Export Plug-In . SVG Version: 6.00 Build 0)  -->
<svg version="1.1" id="Layer_1" xmlns="http://www.w3.org/2000/svg" xmlns:xlink="http://www.w3.org/1999/xlink" x="0px" y="0px"
     viewBox="0 0 50 50" style="enable-background:new 0 0 50 50;" xml:space="preserve">
<path d="M46.3,0.4H4.2C2,0.4,0.5,1.8,0.5,3.8v42.3c0,1.6,1.6,3.3,3.2,3.5h37.2v0h4.9c2.1,0,3.5-1.4,3.5-3.5V3.8
    C50,1.8,48.1,0.4,46.3,0.4z M16.1,42.4H8.3v-23h7.8V42.4z M11.8,16.5c-2.5,0-4.4-2.1-4.4-4.6s2.1-4.6,4.4-4.6c2.5,0,4.6,2.1,4.6,4.6
    S14.3,16.5,11.8,16.5z M42.2,42.4h-7.8V30.8c0-3.2-0.6-6-3.8-6s-3.8,3.2-3.8,6V42h-7.8v-23h8.1v2.9h0.3c1.1-1.7,3.5-3.5,6.3-3.5
    c7,0,8.4,4.6,8.4,10.1V42.4z"/>
</svg>
