<?xml version="1.0" encoding="utf-8"?>
<!-- Generator: Adobe Illustrator 21.0.2, SVG Export Plug-In . SVG Version: 6.00 Build 0)  -->
<svg version="1.1" id="Layer_1" xmlns="http://www.w3.org/2000/svg" xmlns:xlink="http://www.w3.org/1999/xlink" x="0px" y="0px"
	 viewBox="0 0 50 50" style="enable-background:new 0 0 50 50;" xml:space="preserve">

<path d="M39.8,4.7H11.4c-1.5,0-2.5,1-2.5,2.4v28.5c0,1.2,1.2,2.4,2.4,2.4h5c0,2.9-2.4,5.7-5,7.2
	c9.5,0,12.6-3.8,16.1-7.2h12.1c1.4,0,2.4-1,2.4-2.4V7.1C42.3,5.7,41,4.7,39.8,4.7z M19.4,33h-5.2V17.5h5.2V33z M16.5,15.6
	c-1.7,0-3-1.4-3-3.1s1.4-3.1,3-3.1c1.7,0,3.1,1.4,3.1,3.1S18.2,15.6,16.5,15.6z M37,33h-5.2v-7.8c0-2.1-0.4-4.1-2.6-4.1
	s-2.6,2.1-2.6,4.1v7.6h-5.2V17.3h5.4v1.9h0.2c0.7-1.2,2.4-2.4,4.3-2.4c4.7,0,5.7,3.1,5.7,6.8V33z"/>
</svg>
