<?xml version="1.0" encoding="utf-8"?>
<!-- Generator: Adobe Illustrator 21.0.2, SVG Export Plug-In . SVG Version: 6.00 Build 0)  -->
<svg version="1.1" id="Layer_1" xmlns="http://www.w3.org/2000/svg" xmlns:xlink="http://www.w3.org/1999/xlink" x="0px" y="0px"
     viewBox="0 0 50 50" style="enable-background:new 0 0 50 50;" xml:space="preserve">

<path d="M40.8,3.4H10.5c-1.6,0-2.6,1-2.6,2.5v30.4c0,1.3,1.3,2.5,2.5,2.5h5.4c0,3.1-2.5,6-5.4,7.6
    c10.1,0,13.4-4.1,17.2-7.6h12.9c1.5,0,2.5-1,2.5-2.5V5.9C43.4,4.4,42,3.4,40.8,3.4z M19,33.6h-5.6V17H19V33.6z M15.9,15
    c-1.8,0-3.2-1.5-3.2-3.3s1.5-3.3,3.2-3.3c1.8,0,3.3,1.5,3.3,3.3S17.8,15,15.9,15z M37.8,33.6h-5.6v-8.3c0-2.3-0.5-4.3-2.7-4.3
    s-2.7,2.3-2.7,4.3v8.1h-5.6V16.8H27v2.1h0.2c0.8-1.3,2.5-2.5,4.6-2.5c5,0,6,3.3,6,7.3V33.6z"/>
</svg>
