<?xml version="1.0" encoding="utf-8"?>
<!-- Generator: Adobe Illustrator 20.1.0, SVG Export Plug-In . SVG Version: 6.00 Build 0)  -->
<svg version="1.1" id="Layer_1" xmlns="http://www.w3.org/2000/svg" xmlns:xlink="http://www.w3.org/1999/xlink" x="0px" y="0px"
	 viewBox="0 0 36 34.7" style="enable-background:new 0 0 36 34.7;" xml:space="preserve">
<path d="M33.9,14.3L19.9,1.7c-0.5-0.5-1-0.8-1.9-0.8c-0.7,0-1.4,0.3-2,0.8L2.1,14.3C1.5,14.8,1,15.6,1,16.4v14
	c0,1.6,1.7,3.3,3.3,3.3H18h13.7c1.6,0,3.3-1.7,3.3-3.3v-14C35,15.6,34.5,14.8,33.9,14.3z M18,3.8l13.3,11.8L24,21.9L20,18.4
	c-0.6-0.5-1-0.7-2-0.7c-0.9,0-1.4,0.2-2,0.7L12,21.9l-7.2-6.4L18,3.8z M4,29.1V18.5l6,5.3L4,29.1z M18,30.4l-11.5,0l11.3-9.9
	c0,0,0.1,0,0.1,0c0,0,0.1,0,0.1,0l11.3,9.9L18,30.4z M32,29.1l-6-5.2l6-5.3V29.1z"/>
</svg>
