<?xml version="1.0" encoding="utf-8"?>
<!-- Generator: Adobe Illustrator 20.1.0, SVG Export Plug-In . SVG Version: 6.00 Build 0)  -->
<svg version="1.1" id="Layer_1" xmlns="http://www.w3.org/2000/svg" xmlns:xlink="http://www.w3.org/1999/xlink" x="0px" y="0px"
	 viewBox="0 0 50 50" style="enable-background:new 0 0 50 50;" xml:space="preserve">
<path d="M49.7,45.6v-28c0-3.7-2.2-4.2-3.4-4.2H16c-2.5,0-5.4,1.8-5.4,4.2v17.7l0,0l0,0c0,2.4,3,4.5,5.4,4.5h23.1l7.7,7.3
	c0.5,0.3,0.9,0.6,1.6,0.6h0.5l0.2-0.2C49.7,46.9,49.7,46.2,49.7,45.6z M46.8,16.9L31.5,28.3c-0.1,0.1-0.3,0.1-0.6,0L15.5,16.9
	c0.1,0,0.2,0,0.3,0h30.3C46.5,16.8,46.6,16.8,46.8,16.9z M13,35.3L13,35.3L13,35.3L13,35.3z M14.2,35.3V20.5l14.3,10.4
	c0.8,0.6,1.8,0.8,2.5,0.8c0.9,0,1.4-0.3,2-0.8l13.2-10.1v21.7l-5.5-5.7l0,0c-0.1-0.1-0.1-0.1-0.1-0.1c-0.2-0.2-0.5-0.3-0.9-0.3H16
	C15.3,36.3,14.2,35.5,14.2,35.3z M48.6,45.4L48.6,45.4L48.6,45.4L48.6,45.4z M46.8,14.5c-0.1,0-0.2,0-0.5,0
	C46.4,14.5,46.6,14.5,46.8,14.5z"/>
<path d="M32.4,2.7H4.9c-2.5,0-4.6,2.1-4.6,4.6v18.4v3.7v2.2c0,0.8,1,1.3,1.5,0.7L6.8,27C6.9,26.9,7,26.7,7,26.3v-9.8
	c0-3.9,3.2-7,7-7h22c0.5,0,0.9-0.5,0.9-0.9V7.2C37,4.8,34.9,2.7,32.4,2.7z"/>
</svg>
