<?xml version="1.0" encoding="utf-8"?>
<!-- Generator: Adobe Illustrator 20.1.0, SVG Export Plug-In . SVG Version: 6.00 Build 0)  -->
<svg version="1.1" id="Layer_1" xmlns="http://www.w3.org/2000/svg" xmlns:xlink="http://www.w3.org/1999/xlink" x="0px" y="0px"
	 viewBox="0 0 50 50" style="enable-background:new 0 0 50 50;" xml:space="preserve">
<style type="text/css">
	.st0{fill:#FFFFFF;}
	.st1{fill:#656D78;}
	.st2{fill:#DEDEDE;}
</style>
<polygon class="st0" points="14.6,14.9 12.9,15.9 12.9,32.9 14.1,34.7 35.9,34.9 42.7,41.8 43.9,40.7 43.9,16.9 42,14.9 "/>
<path class="st1" d="M41.6,13.9H15.2c-1.8,0-3.4,1.5-3.4,3.4v15.4c0,1.8,1.5,3.2,3.4,3.2h20.3l6.9,6.6c0.3,0.3,0.7,0.4,1,0.4
	c0.2,0,0.4,0,0.6-0.1c0.5-0.2,0.9-0.8,0.9-1.4V17.3C44.9,15.4,43.4,13.9,41.6,13.9z M15.2,15.9h26.4c0.5,0,0.9,0.3,1.1,0.8L29,26.9
	c-0.3,0.2-0.7,0.2-1.1,0L14.1,16.5C14.3,16.1,14.8,15.9,15.2,15.9z M36.8,34.3c-0.3-0.3-0.6-0.4-1-0.4H15.2c-0.7,0-1.4-0.5-1.4-1.2
	V18.8l12.9,9.7c0.5,0.4,1.1,0.6,1.7,0.6s1.2-0.2,1.7-0.6l12.6-9.4v21.2L36.8,34.3z"/>
<path class="st2" d="M31.9,5.9h-24c-2.2,0-4,1.8-4,4v16v3.2V31c0,0.7,0.9,1.1,1.3,0.6L9.6,27c0.1-0.1,0.2-0.3,0.2-0.6V18
	c0-3.4,2.8-6.1,6.1-6.1h19.1c0.4,0,0.8-0.4,0.8-0.8V9.9C35.9,7.7,34.1,5.9,31.9,5.9z"/>
</svg>
