<?xml version="1.0" encoding="utf-8"?>
<!-- Generator: Adobe Illustrator 21.0.2, SVG Export Plug-In . SVG Version: 6.00 Build 0)  -->
<svg version="1.1" id="Layer_1" xmlns="http://www.w3.org/2000/svg" xmlns:xlink="http://www.w3.org/1999/xlink" x="0px" y="0px"
	 viewBox="0 0 15 15" style="enable-background:new 0 0 15 15;" xml:space="preserve">
<path d="M15,13.3l-4.5-4.5c0.6-0.9,0.9-2,0.9-3.1C11.5,2.6,8.9,0,5.7,0C2.6,0,0,2.6,0,5.7c0,3.2,2.6,5.7,5.7,5.7
	c1.1,0,2.2-0.3,3.1-0.9l4.5,4.5L15,13.3z M5.7,9.3c-2,0-3.6-1.6-3.6-3.6c0-2,1.6-3.6,3.6-3.6c2,0,3.6,1.6,3.6,3.6
	C9.3,7.7,7.7,9.3,5.7,9.3z"/>
</svg>
