<?xml version="1.0" encoding="utf-8"?>
<!-- Generator: Adobe Illustrator 21.0.2, SVG Export Plug-In . SVG Version: 6.00 Build 0)  -->
<svg version="1.1" id="Layer_1" xmlns="http://www.w3.org/2000/svg" xmlns:xlink="http://www.w3.org/1999/xlink" x="0px" y="0px"
	 viewBox="0 0 30 21" style="enable-background:new 0 0 30 21;" xml:space="preserve">
<title>results-zero-state-icon</title>
<desc>Created with Sketch.</desc>
<g id="assets">
	<path id="Shape-Copy" d="M16.9,13.5c0,0-0.5,0.5-1,1.4c-0.4-1.6-1.1-2.6-1.1-2.6s3.2-4.7-1.5-8.7C8.6-0.3,0,0,0,0s1.1,9.7,5.4,13.6
		s8.1,0.4,8.1,0.4c1.9,2.1,0.7,5.6,0.7,5.6l1.6,1.2c0,0,0.2-0.7,0.3-1.7c0,0,0-0.6,0.1-1.3c0.1-0.9,0.4-2.2,1.4-2.9
		c0,0,2.3,3.3,6.2,1c3.8-2.3,6.1-9.4,6.1-9.4s-6.4-1.6-10.6,0.7S16.9,13.5,16.9,13.5z M13.8,12.7c-0.5,0.5-1.4-0.1-2.9-3.1
		C8.6,5.3,4,4,4,4c3.1,0.5,5.9,2.5,7.7,4.9C13.2,11,14.3,12.3,13.8,12.7L13.8,12.7z M20.4,11.8c-1.9,2.3-2.7,2.5-2.9,2
		c-0.2-0.5,0.8-1.4,2.6-2.8c2-1.7,4.5-2.8,6.8-2.6C26.9,8.3,23.2,8.5,20.4,11.8L20.4,11.8z"/>
</g>
</svg>
