<?xml version="1.0" encoding="utf-8"?>
<!-- Generator: Adobe Illustrator 21.0.2, SVG Export Plug-In . SVG Version: 6.00 Build 0)  -->
<svg version="1.1"
     id="svg3671" inkscape:version="0.48.5 r10040" sodipodi:docname="New document 4" xmlns:cc="http://creativecommons.org/ns#" xmlns:dc="http://purl.org/dc/elements/1.1/" xmlns:inkscape="http://www.inkscape.org/namespaces/inkscape" xmlns:rdf="http://www.w3.org/1999/02/22-rdf-syntax-ns#" xmlns:sodipodi="http://sodipodi.sourceforge.net/DTD/sodipodi-0.dtd" xmlns:svg="http://www.w3.org/2000/svg"
     xmlns="http://www.w3.org/2000/svg" xmlns:xlink="http://www.w3.org/1999/xlink" x="0px" y="0px" viewBox="0 0 1000 700.2"
     style="enable-background:new 0 0 1000 700.2;" xml:space="preserve">

<g id="layer1" transform="translate(124.99999,-182.24065)" inkscape:groupmode="layer" inkscape:label="Layer 1">
    <g id="g3003" transform="matrix(14.230769,0,0,-14.230769,291.22346,259.00334)">
        <path d="M0,0c2.3,2.4,5.4,3.8,8.9,3.8c4.6,0,8.7-2.6,10.8-6.4
            c1.9,0.8,3.9,1.3,6.1,1.3C34.2-1.3,41-8.1,41-16.6c0-8.4-6.8-15.3-15.1-15.3c-1,0-2,0.1-3,0.3c-1.9-3.4-5.5-5.7-9.7-5.7
            c-1.7,0-3.4,0.4-4.8,1.1C6.5-40.6,2-43.8-3.2-43.8c-5.4,0-10.1,3.4-11.8,8.3c-0.8-0.2-1.6-0.3-2.4-0.3c-6.5,0-11.7,5.3-11.7,11.8
            c0,4.4,2.4,8.2,5.9,10.3c-0.7,1.7-1.1,3.5-1.1,5.4c0,7.5,6.1,13.6,13.6,13.6C-6.4,5.4-2.5,3.3,0,0"/>
    </g>
</g>
</svg>
