<?xml version="1.0" encoding="utf-8"?>
<!-- Generator: Adobe Illustrator 21.0.2, SVG Export Plug-In . SVG Version: 6.00 Build 0)  -->
<svg version="1.1" id="Layer_1" xmlns="http://www.w3.org/2000/svg" xmlns:xlink="http://www.w3.org/1999/xlink" x="0px" y="0px"
	 viewBox="0 0 54.3 44.7" style="enable-background:new 0 0 54.3 44.7;" xml:space="preserve">
<g transform="translate(-91.214475,-152.15558)">
	<path d="M130.6,152.2c-1.9,15.9-1.4,20.6-15,22.3c13.4,2.2,13.6,7.1,15,22.3c1.9-15.4,1.5-20,15-22.3
		C132,172.7,132.4,168,130.6,152.2z M99.3,152.6c-1.1,8.6-0.7,11.1-8.1,12.1c7.2,1.2,7.3,3.8,8.1,12.1c1-8.3,0.8-10.8,8.1-12.1
		C100,163.7,100.3,161.1,99.3,152.6L99.3,152.6z M107.5,177.6c-0.7,6-0.5,7.8-5.7,8.5c5.1,0.8,5.1,2.7,5.7,8.5
		c0.7-5.8,0.6-7.6,5.7-8.5C108,185.4,108.2,183.6,107.5,177.6L107.5,177.6z"/>
</g>
</svg>
