<?xml version="1.0" encoding="utf-8"?>
<!-- Generator: Adobe Illustrator 21.0.2, SVG Export Plug-In . SVG Version: 6.00 Build 0)  -->
<svg version="1.1" id="Layer_1" xmlns="http://www.w3.org/2000/svg" xmlns:xlink="http://www.w3.org/1999/xlink" x="0px" y="0px"
	 viewBox="0 0 76.1 76.1" style="enable-background:new 0 0 76.1 76.1;" xml:space="preserve">
<g>
	<path d="M48.4,76.1C48.4,76.1,48.4,76.1,48.4,76.1c-2.6,0-5.1-1-6.9-2.9L2.9,34.7C1.1,33,0.1,30.6,0,28.1l0-18.3
		C0.1,4.4,4.4,0,9.8,0l18.3,0c2.6,0.1,4.9,1.1,6.7,2.8l38.5,38.5c1.8,1.8,2.9,4.3,2.9,6.9c0,2.6-1,5.1-2.9,6.9l-18,18
		C53.4,75.1,51,76.1,48.4,76.1z M17.9,8.7c-2.5,0-4.8,1-6.5,2.7c-1.7,1.7-2.7,4.1-2.7,6.5c0,5.1,4.2,9.3,9.3,9.3
		c5.1,0,9.3-4.2,9.3-9.3C27.2,12.8,23.1,8.7,17.9,8.7z"/>
</g>
</svg>
