<?xml version="1.0" encoding="utf-8"?>
<!-- Generator: Adobe Illustrator 21.0.2, SVG Export Plug-In . SVG Version: 6.00 Build 0)  -->
<svg version="1.1" id="Layer_1" xmlns="http://www.w3.org/2000/svg" xmlns:xlink="http://www.w3.org/1999/xlink" x="0px" y="0px"
	 viewBox="0 0 50 50" style="enable-background:new 0 0 50 50;" xml:space="preserve">
<g>
	<g>
		<path d="M43.7,47.9H6.3c-3.4,0-6.1-2.6-6.1-5.7v-34h6.5v-6h43.2v40.1C49.8,45.3,47.1,47.9,43.7,47.9z M2.4,10.4v31.8
			c0,1.9,1.8,3.5,3.9,3.5h37.4c2.1,0,3.9-1.6,3.9-3.5V4.4H8.9v6H2.4z"/>
	</g>
	<g>
		<rect x="6.6" y="9.3" width="2.2" height="31.4"/>
	</g>
	<g>
		<rect x="14.1" y="10.8" width="18.1" height="2.8"/>
	</g>
	<g>
		<g>
			<rect x="14.1" y="19.2" width="11.7" height="2.8"/>
		</g>
		<g>
			<rect x="28.8" y="19.2" width="11.9" height="2.8"/>
		</g>
	</g>
	<g>
		<g>
			<rect x="14.1" y="27.6" width="5.4" height="2.8"/>
		</g>
		<g>
			<rect x="22.2" y="27.6" width="17.3" height="2.8"/>
		</g>
	</g>
	<g>
		<g>
			<rect x="14.1" y="36" width="20.1" height="2.8"/>
		</g>
		<g>
			<rect x="37.1" y="36" width="5.1" height="2.8"/>
		</g>
	</g>
</g>
</svg>
