<svg id="Layer_1" data-name="Layer 1" xmlns="http://www.w3.org/2000/svg" viewBox="0 0 50 50"><defs><style>.cls-1{fill:#809cff;}</style></defs><title>cigna</title><path class="cls-1" d="M33.84,22.06c0,.31-.33.66-.76,1.2-1.47,1.81-4.75,5-4.75,13,0,4.13.68,5.84.68,7.77,0,.88-.17,1.34-.63,1.34-1,0-2.8-4.35-2.8-9.57,0-10.93,6.89-14,8-14,.21,0,.3.12.3.24m-17.37-.24c1.06,0,8,3,8,14,0,5.22-1.76,9.57-2.79,9.57-.46,0-.63-.46-.63-1.34,0-1.93.68-3.65.68-7.77,0-8-3.28-11.18-4.75-13-.44-.54-.76-.88-.76-1.2C16.16,21.93,16.25,21.82,16.47,21.82Z"/><path class="cls-1" d="M22.48,24A2.52,2.52,0,1,0,25,21.42,2.55,2.55,0,0,0,22.48,24"/><path class="cls-1" d="M46.52,40.23A38.55,38.55,0,0,0,29.59,35a10.27,10.27,0,0,0-.08,1.24,5.87,5.87,0,0,0,.06.68,60.17,60.17,0,0,1,16.91,3.47.89.89,0,0,0,.18.06.06.06,0,0,0,.06-.06c0-.06-.06-.08-.21-.17M29.09,10.78a2.35,2.35,0,0,1-.72-2.64,3.65,3.65,0,0,1,2.29-2.46A3.64,3.64,0,0,1,31.17,9,2.35,2.35,0,0,1,29.09,10.78Zm5.81,4.84a2.26,2.26,0,0,1,.78-2.5,3.5,3.5,0,0,1,3.13-.81,3.5,3.5,0,0,1-1.31,3A2.26,2.26,0,0,1,34.9,15.61Zm.18,7.3a2.22,2.22,0,0,1,2-1.6,3.43,3.43,0,0,1,3,1.06A3.43,3.43,0,0,1,37.39,24,2.21,2.21,0,0,1,35.09,22.91ZM33,25.55a2,2,0,0,1,2.13-.84,3.05,3.05,0,0,1,2.26,1.69,3.06,3.06,0,0,1-2.73.72A2,2,0,0,1,33,25.55Zm-6.33-6.9a2.82,2.82,0,0,1-.86-3.16,4.38,4.38,0,0,1,2.75-3,4.38,4.38,0,0,1,.6,4A2.82,2.82,0,0,1,26.65,18.65Zm2.76,1.61a2.54,2.54,0,0,1,.88-2.82,3.94,3.94,0,0,1,3.52-.91,3.94,3.94,0,0,1-1.47,3.32A2.54,2.54,0,0,1,29.42,20.26Zm1.84-5.9a2.88,2.88,0,0,1,0-3.34,4.46,4.46,0,0,1,3.52-2.13A4.46,4.46,0,0,1,34.3,13,2.87,2.87,0,0,1,31.26,14.36ZM35,19.48a2.68,2.68,0,0,1,1.71-2.6,4.16,4.16,0,0,1,3.83.1,4.16,4.16,0,0,1-2.46,2.95A2.68,2.68,0,0,1,35,19.48ZM23,8.85a5.06,5.06,0,0,1,2-4.2,5.06,5.06,0,0,1,2,4.2A3.26,3.26,0,0,1,25,12,3.26,3.26,0,0,1,23,8.85ZM3.28,40.39a.06.06,0,0,0,.06.06.94.94,0,0,0,.18-.06,60.19,60.19,0,0,1,16.91-3.47,5.86,5.86,0,0,0,.06-.68A10.26,10.26,0,0,0,20.41,35,38.55,38.55,0,0,0,3.48,40.23C3.34,40.31,3.28,40.34,3.28,40.39ZM18.83,9a3.65,3.65,0,0,1,.5-3.33,3.65,3.65,0,0,1,2.29,2.46,2.35,2.35,0,0,1-.72,2.64A2.35,2.35,0,0,1,18.83,9ZM12.5,15.25a3.51,3.51,0,0,1-1.31-3,3.5,3.5,0,0,1,3.13.81,2.26,2.26,0,0,1,.78,2.5A2.26,2.26,0,0,1,12.5,15.25ZM12.61,24a3.43,3.43,0,0,1-2.69-1.68,3.43,3.43,0,0,1,3-1.06,2.22,2.22,0,0,1,2,1.6A2.21,2.21,0,0,1,12.61,24Zm2.75,3.08a3.06,3.06,0,0,1-2.73-.72,3.05,3.05,0,0,1,2.26-1.69,2,2,0,0,1,2.13.84A2,2,0,0,1,15.36,27.13Zm5.5-10.6a4.38,4.38,0,0,1,.6-4,4.38,4.38,0,0,1,2.75,3,2.82,2.82,0,0,1-.86,3.16A2.82,2.82,0,0,1,20.85,16.53Zm-3.19,3.33a3.94,3.94,0,0,1-1.47-3.32,3.94,3.94,0,0,1,3.52.91,2.54,2.54,0,0,1,.88,2.82A2.54,2.54,0,0,1,17.66,19.86ZM15.7,13a4.46,4.46,0,0,1-.52-4.09A4.46,4.46,0,0,1,18.71,11a2.88,2.88,0,0,1,0,3.34A2.88,2.88,0,0,1,15.7,13Zm-3.77,7A4.16,4.16,0,0,1,9.47,17a4.16,4.16,0,0,1,3.83-.1A2.68,2.68,0,0,1,15,19.48,2.68,2.68,0,0,1,11.93,19.92Z"/></svg>