<svg id="Layer_1" data-name="Layer 1" xmlns="http://www.w3.org/2000/svg" viewBox="0 0 50 50"><defs><style>.cls-1{fill:#809cff;}</style></defs><title>Artboard 7</title><path class="cls-1" d="M32.09,11.28c-1,1.1-1.8,2.3-2.9,3.3s-2.1,1.7-3.4,2.8c-.3-4.5,4.3-9.9,7.9-9.8.7,0,1.8,1.3,1.9,2.1a10.61,10.61,0,0,1-4.1,10.6,10.33,10.33,0,0,1-10.8,1.6,11.05,11.05,0,0,1-6.9-12.1c.3-2.2,1.2-2.7,3.3-1.9a11,11,0,0,1,7,8.8c-4.1.2-4-4.5-7-5.2-.6,2.3.3,4.5,2.7,6.4a7.58,7.58,0,0,0,8.5.8,7.28,7.28,0,0,0,4.3-7.1A2.18,2.18,0,0,0,32.09,11.28Z"/><path class="cls-1" d="M17,38.48a7.85,7.85,0,1,0-7.8-13.6c2.1,2.6,6.3.1,8.1,3.4-3.7,1.9-9.5.9-11.8-2.2a2.74,2.74,0,0,1,.3-2.6c2.9-3,7.9-3.7,12-1.9a11.2,11.2,0,0,1,6.6,10.5,11.41,11.41,0,0,1-7.1,9.9c-2.2.8-3.1.3-3.4-2.1-.5-4.3,1.1-8,4.2-10C20.19,33.08,16,35.38,17,38.48Z"/><path class="cls-1" d="M31.59,29.78A10.74,10.74,0,0,1,35.79,40c-.3,2.4-1.3,3-3.4,2.1-4.1-1.8-6.7-4.9-7-9.4a10.7,10.7,0,0,1,6.5-11c4.2-1.9,8.1-1.1,11.7,1.6,1.2.9,1.6,2,.4,3.2-2.7,2.8-8.2,3.7-11.8,1.1,2.8-.8,5.5-1.5,8.7-2.4-2.8-2-5.3-2-7.7-.8a7.94,7.94,0,0,0-.6,14.3C33.39,35.48,29.69,33,31.59,29.78Z"/></svg>