<?xml version="1.0" encoding="utf-8"?>
<!-- Generator: Adobe Illustrator 20.0.0, SVG Export Plug-In . SVG Version: 6.00 Build 0)  -->
<svg version="1.1" id="Layer_1" xmlns="http://www.w3.org/2000/svg" xmlns:xlink="http://www.w3.org/1999/xlink" x="0px" y="0px"
	 viewBox="0 0 50 50" style="enable-background:new 0 0 50 50;" xml:space="preserve">
<style type="text/css">
	.st0{fill:#809CFF;}
</style>
<title>Group 2</title>
<desc>Created using Figma</desc>
<g>
	<rect x="32.9" y="27.2" class="st0" width="4.7" height="13.5"/>
	<rect x="28.2" y="31.7" class="st0" width="14" height="4.5"/>
	<path class="st0" d="M14.7,17.6v8.5l6.9,4.8l7.5-4.9v-8.6c0,0-1.3,0.2-2.8,0.5c-3.2,0.7-6.4,0.7-9.6,0L14.7,17.6z"/>
	<path class="st0" d="M25.4,32.2l-3.8,2.7l-9.2-6.6c-0.8-0.6-1.2-1.4-1.2-2.4V13l4.1,1.1c4.2,1.2,8.6,1.2,12.7,0L32,13v11.8h3.3
		V11.4c0-0.6-0.3-1.2-0.8-1.7c-0.5-0.4-1.1-0.6-1.8-0.4L27,10.9c-3.6,1-7.4,1-10.9,0l-5.6-1.6l-0.1,0c-0.6-0.1-1.3,0-1.8,0.4
		c-0.5,0.4-0.8,1-0.8,1.7V26c0,2,1,3.9,2.6,5.1l9.3,6.7c0.5,0.4,1.2,0.6,1.8,0.6s1.3-0.2,1.8-0.6l2-1.4V32.2z"/>
</g>
</svg>
