<?xml version="1.0" encoding="utf-8"?>
<!-- Generator: Adobe Illustrator 20.0.0, SVG Export Plug-In . SVG Version: 6.00 Build 0)  -->
<svg version="1.1" id="Layer_1" xmlns="http://www.w3.org/2000/svg" xmlns:xlink="http://www.w3.org/1999/xlink" x="0px" y="0px"
	 viewBox="0 0 50 50" style="enable-background:new 0 0 50 50;" xml:space="preserve">
<style type="text/css">
	.st0{fill:#809CFF;}
	.st1{fill:none;stroke:#CFCAD9;stroke-width:1.4374;stroke-miterlimit:10;}
</style>
<g>
	<path class="st0" d="M11.2,33.5c0-2.2,0.8-4.2,2-5.5L12,26.7c-1.5,1.6-2.5,4.1-2.5,6.8c0,3.7,1.8,6.9,4.4,8.2l1.4-1.4
		C12.9,39.6,11.2,36.8,11.2,33.5z"/>
</g>
<path class="st1" d="M18.7,41.7"/>
<path class="st0" d="M36.3,15.4v-3l-4.1-4.1l-15.3,8.1v12.3l1.8,1.8l0,0h0l0.1,0.1l0.1,0.1h0l1.2,1.2h0v1.5v0.1v8.2h7.5v-8.4h-5.9
	v-1.5l6.2,0c0.7,0,1.3,0.6,1.3,1.3v3.5v4.9v0h7.2v0h0.2v-8.9l3.9-3.9V18.5L36.3,15.4z M38.4,28.1L34.5,32v4.8h-3.8v-3.5
	c0-1.5-1.2-2.8-2.8-2.8h-6.2L19,27.8V17.6l2.6-1.4v5.5l2.2-1.2v-5.4l3.2-1.7v5.4l2.2-1.2v-5.3l2.6-1.4l2.4,2.4v8.2h2.2V18l2.1,1.5
	V28.1z"/>
<g>
	<path class="st0" d="M15.3,33.5C15.3,33.5,15.3,33.5,15.3,33.5c0-1,0.3-2,0.9-2.6l-1.3-1.3c-0.9,1-1.4,2.4-1.4,3.9c0,0,0,0,0,0
		c0,1.6,0.6,3.1,1.7,4.2c0.5,0.5,1,0.8,1.6,1.1l1.5-1.5c-0.7-0.1-1.3-0.3-1.9-0.9C15.7,35.7,15.3,34.6,15.3,33.5z"/>
</g>
</svg>
