<svg id="Layer_1" data-name="Layer 1" xmlns="http://www.w3.org/2000/svg" viewBox="0 0 50 50"><defs><style>.cls-1{fill:#809cff;}</style></defs><title>blueshield</title><path class="cls-1" d="M38.82,4.59A29.93,29.93,0,0,1,25,8,29.93,29.93,0,0,1,11.14,4.59c-2.89,5.68-3.29,14.84-.8,22.5A31.49,31.49,0,0,0,25,45.41c7.67-4.18,12.25-11,14.64-18.32C42.2,19.42,41.71,10.26,38.82,4.59Zm-2,21.61C34.64,32.47,31.35,38,25.08,41.93,18.81,38,15.42,32.47,13.33,26.19,11.44,20.62,10.94,14,13,9a37.84,37.84,0,0,0,6.67,1.69,26.92,26.92,0,0,0,5.38.4,38.45,38.45,0,0,0,5.38-.4A35.82,35.82,0,0,0,37.13,9C39.12,14,38.72,20.62,36.83,26.19Z"/><path class="cls-1" d="M30.46,12.06a50.64,50.64,0,0,1-5.48.4,52.53,52.53,0,0,1-5.48-.4c-1.79-.3-3.58-.7-5.48-1.19-1.29,3.78-1.1,8.56,0,12.74,1.89,8,6.77,14,11,16.73,4.28-2.69,9.06-8.76,11-16.73,1-4.28,1.29-9,0-12.74A35.94,35.94,0,0,1,30.46,12.06ZM24,36.65c-.1.4.1.6.1.8s-.3.2-.4,0a1.49,1.49,0,0,1-.3-1,1.33,1.33,0,0,1,.5-1.29,1.72,1.72,0,0,1,.4-.3l.1,1.29C24.18,36.15,24,36.25,24,36.65Zm1.69,1.29c0,.2-.1.4-.5.4s-.5-.1-.5-.5c-.1-1.59-.1-4.48-.1-4.48a2.59,2.59,0,0,1,.7.3c.1,0,.3.2.5.4,0,.1.1.1.1.2C25.78,35.36,25.68,37.45,25.68,37.94ZM27,35a2.49,2.49,0,0,1-.8.4V34.16a.44.44,0,0,0,.1-.3,4.86,4.86,0,0,0-1.29-1,13.08,13.08,0,0,0-1.49-.5,1.65,1.65,0,0,1-1-2.29c.1-.4.6-.6.8-.7a3.92,3.92,0,0,1,.6-.2l.1,1.39s-.1,0-.2.2a.29.29,0,0,0,.2.4,23.93,23.93,0,0,1,2.29,1.1c.9.5,1.19.9,1.19,1.59A1.08,1.08,0,0,1,27,35Zm-2.49-6.47c.7.1.9.1,1.49.2l-.1,2.79-.6-.3-.6-.3Zm4,.6a1.78,1.78,0,0,1-.9,1.19,2.4,2.4,0,0,1-1.1.3V28.88a.31.31,0,0,0,.2-.1.37.37,0,0,0,.1-.3c0-.1-.1-.2-.2-.3a1.08,1.08,0,0,0-.5-.1l-2.39-.3A2.44,2.44,0,0,1,21.3,25.3c.1-.9,1-1.19,1.69-1.49l.5,1a3.21,3.21,0,0,0,.2.6s-.3.1-.3.3.3.3.4.3a13.06,13.06,0,0,1,3.09.6,2.54,2.54,0,0,1,1.19.8A2.34,2.34,0,0,1,28.46,29.08Zm-4.58-6.47s.3,0,1.19.1a3.29,3.29,0,0,1,1.1.2l-.1,3c-.7-.1-1.1-.2-1.69-.3a6.88,6.88,0,0,0-.9-2.29c-.1-.2,0-.3,0-.3a1.68,1.68,0,0,1,.5-.2Zm2.69,3s.1-1.39.1-2.09a.5.5,0,0,0,.3-.8.68.68,0,0,0-.5-.3,18,18,0,0,0-2.29-.3c-.7-.1-1.29-.2-1.89-.3a4.42,4.42,0,0,1-3.09-2.19,3.1,3.1,0,0,1,1.39-4.08,3.69,3.69,0,0,1,3.39,0c.4.1.6.5.8.8.1.1.3.2.4.4s-.1.1-.1.1a2.84,2.84,0,0,1-1.29,0H22.59a10.86,10.86,0,0,0,1.1.6c.2.1.4.1.6.2s.3.1.3.2-.2.1-.4.2a2,2,0,0,1-1.1,0c-.6-.1-.9-.5-1.29-.3s-.3.5-.2.9c.1.6.7.8,1.19,1,1.69.6,3.58.2,5.18,1.1a2.79,2.79,0,0,1,1.49,1.69C30,25.2,26.57,25.6,26.57,25.6Zm3-9.26c-.1.3-.2.3-.4.5-.4.4-1,.8-1.59,1.29a3.16,3.16,0,0,0-1,1,1.43,1.43,0,0,0-.2.3c-1-.2-1.89-.2-2.69-.4v-.8s.9,0,1-.6a.49.49,0,0,0-.1-.3,1.05,1.05,0,0,0-.5-.2,8.6,8.6,0,0,1,2.09.7,2.26,2.26,0,0,0-.1-.4,1.06,1.06,0,0,0-.5-.3c-.4-.1-1.49-.2-1.49-.2H25c.2,0,.5-.1.5-.2s0-.3-.2-.5l-.3-.3c-.1-.2-.3-.4-.4-.6a2.83,2.83,0,0,0-1-.6s-.1-.5.1-.7a.47.47,0,0,1,.6-.1,8.32,8.32,0,0,0,1.89.8c.2.1.2.1.2.4.1.5-.1,1.19,0,1.49,0,.1.2.1.2.1.7-.4,1.1-1,1.79-1.29C28.86,15.24,29.76,15.64,29.56,16.34Z"/><path class="cls-1" d="M22.89,15.64c.2.2.2.4.5.4a.52.52,0,0,0,.4-.2H24c-.3-.3-1-.3-1.49-.4C22.69,15.64,22.79,15.54,22.89,15.64Z"/></svg>