<svg id="Layer_1" data-name="Layer 1" xmlns="http://www.w3.org/2000/svg" viewBox="0 0 45 3.2"><defs><style>.cls-1{fill:#809cff;}</style></defs><title>logo_data_top</title><rect class="cls-1" x="37.37" width="7.63" height="3.2"/><rect class="cls-1" x="7.92" width="4.96" height="3.2"/><rect class="cls-1" x="23.12" width="12.64" height="3.2"/><rect class="cls-1" x="16.96" width="3.55" height="3.2"/><rect class="cls-1" width="3.55" height="3.2"/><polygon class="cls-1" points="54.9 4.95 49.95 4.95 49.95 0 46.75 0 46.75 4.95 41.8 4.95 41.8 8.15 46.75 8.15 46.75 13.1 49.95 13.1 49.95 8.15 54.9 8.15 54.9 4.95"/><path class="cls-1" d="M51.72,3.2h4.93V9.9H51.7v3.2H73.92C73,4.49,65.13,5,65.13,5c-.87-6.23-6.8-5.47-6.8-5.47C57.76-4.45,53.71-7.42,49-7.42c-4.14,0-7.59,2.44-8.31,5.67h11Z"/></svg>