<?xml version="1.0" encoding="utf-8"?>
<!-- Generator: Adobe Illustrator 20.0.0, SVG Export Plug-In . SVG Version: 6.00 Build 0)  -->
<svg version="1.1" id="Layer_1" xmlns="http://www.w3.org/2000/svg" xmlns:xlink="http://www.w3.org/1999/xlink" x="0px" y="0px"
	 viewBox="0 0 50 50" style="enable-background:new 0 0 50 50;" xml:space="preserve">
<style type="text/css">
	.st0{fill:#809CFF;}
</style>
<title>Union</title>
<desc>Created using Figma</desc>
<g>
	<polygon class="st0" points="27.9,20.3 27.9,20.3 27.3,19.8 	"/>
	<path class="st0" d="M31.8,32.9l6-8.3l-0.6-0.5v0l0.6,0.5l0.9-1.2h-1.5h-3.2h-0.4l-0.2,0.3l0.6,0.5l0,0l-0.6-0.5l-4,5.5l-4.5-6.6
		c1.3-0.5,2.3-1.2,3.1-2.2l-0.6-0.5l0,0l0,0l0.6,0.5c1-1.3,1.5-2.8,1.5-4.6c0-2.3-0.8-4.1-2.4-5.5l-0.5,0.6l0,0l0.5-0.6l0,0
		c-1.6-1.4-3.7-2-6.2-2h-8.7h-0.8V9v23v0.8h0.8h2.8h0.8V32v-8.8H20l6.5,9.5l-5.8,7.8l-0.9,1.2h1.5H25h0.4l0.2-0.3L25,41l0,0l0.6,0.5
		l3.6-4.9l3.4,4.9l0.6-0.4l0,0l-0.6,0.4l0.2,0.3h0.4h3.2h1.5l-0.8-1.2L31.8,32.9z M15.7,12.4h5.1c1.5,0,2.5,0.3,3.2,0.8
		c0.6,0.5,0.9,1.3,0.9,2.5s-0.4,2-0.9,2.5c-0.6,0.5-1.6,0.8-3.2,0.8h-5.1V12.4z M20.4,22.5L20.4,22.5L20.4,22.5L20.4,22.5z"/>
</g>
</svg>
