<?xml version="1.0" encoding="utf-8"?>
<!-- Generator: Adobe Illustrator 20.0.0, SVG Export Plug-In . SVG Version: 6.00 Build 0)  -->
<svg version="1.1" id="Layer_1" xmlns="http://www.w3.org/2000/svg" xmlns:xlink="http://www.w3.org/1999/xlink" x="0px" y="0px"
	 viewBox="0 0 50 50" style="enable-background:new 0 0 50 50;" xml:space="preserve">
<style type="text/css">
	.st0{fill:#809CFF;}
</style>
<title>Group 3.1</title>
<desc>Created using Figma</desc>
<path class="st0" d="M16.3,33.9H25v-2.1h-7.2c1.9-2.4,4.3-4.2,7.2-5.5c3.5-1.6,7.1-3.7,9.7-6.8c0.5-0.5,0.9-1.1,1.3-1.7h0.1v-0.2
	c1.9-2.8,3-6.2,3-10.6h-0.3h-2.7h-0.3c0,1.2-0.1,2.2-0.3,3.2h-6.5v2.1h5.9c-0.4,1.2-0.9,2.3-1.5,3.2H25v2.1h6.9
	c-2.2,2.3-5.1,4-8.2,5.5c-7.4,3.4-12.7,9.9-12.7,19.7h0.3h2.7h0.3c0-0.9,0.1-1.8,0.2-2.7h5.2v-2.1h-4.8C15,36.6,15.6,35.2,16.3,33.9
	z"/>
<path class="st0" d="M31.1,26.1L31.1,26.1L31.1,26.1L30.9,26c-1.5,1.1-3.1,1.8-3.1,1.8l1.3,0.9c1.1,0.9,2.2,1.9,3.1,3h-3.1v2.1h4.5
	c0.7,1.3,1.3,2.7,1.7,4.3H22.2v2.1h13.5c0.1,0.9,0.2,1.8,0.2,2.7h3.2C39.1,35.5,36,29.9,31.1,26.1z"/>
<path class="st0" d="M14.4,10.2c-0.2-1-0.3-2.1-0.3-3.2h-3.2c0,7.8,3.7,12.7,8.5,16c1.1-0.9,2.2-1.1,3.3-1.7c-0.2-0.1-0.5-0.3-1-0.6
	c-1.3-0.9-2.5-1.8-3.6-3h4.1v-2.1h-5.8c-0.6-1-1.1-2-1.5-3.2H25v-2.1H14.4z"/>
</svg>
