<?xml version="1.0" encoding="utf-8"?>
<!-- Generator: Adobe Illustrator 20.0.0, SVG Export Plug-In . SVG Version: 6.00 Build 0)  -->
<svg version="1.1" id="Layer_1" xmlns="http://www.w3.org/2000/svg" xmlns:xlink="http://www.w3.org/1999/xlink" x="0px" y="0px"
	 viewBox="0 0 50 50" style="enable-background:new 0 0 50 50;" xml:space="preserve">
<style type="text/css">
	.st0{fill:#809CFF;}
</style>
<path class="st0" d="M47.1,23c-0.5-1.1-1.4-2-2.5-2.5l-0.9,2.1c0.6,0.2,1,0.7,1.3,1.3c0.2,0.6,0.2,1.2,0,1.8c-0.2,0.6-0.7,1-1.2,1.3
	c-0.6,0.2-1.2,0.2-1.8,0c-0.3-0.1-0.5-0.3-0.7-0.5c0.2-0.7,0.3-1.5,0.3-2.3c0-6.9-6.7-13-14.4-13h-4.7c-3.1-2.3-8.5-2.9-8.7-2.9
	l-1.9-0.2l0.8,1.8c0,0,0.7,1.6,1.3,3.5c-2.2,1.4-4.1,3.3-5.3,5.4H2.8l1.8,9.1h3c1.1,2.9,3.5,5.4,6.7,6.9l-0.6,1.9
	c-0.2,0.8-0.1,1.6,0.4,2.2c0.5,0.6,1.2,1,2,1h5c1.1,0,2-0.9,2-2v-2.3h2.3v2.3c0,1.1,0.9,2,2,2h5c0.8,0,1.5-0.4,2-1
	c0.5-0.6,0.6-1.4,0.4-2.2l-0.6-2c2.8-1.4,5-3.5,6.1-6c0.2,0.1,0.4,0.2,0.6,0.3c0.6,0.2,1.2,0.3,1.7,0.3c1.8,0,3.5-1.1,4.2-2.8
	C47.5,25.3,47.5,24.1,47.1,23z M32.5,32.9l-1,0.4l1.2,3.9c0,0.1,0,0.2,0,0.2c0,0-0.1,0.1-0.2,0.1h-4.7v-4.3h-6.9v4.3h-4.7
	c-0.1,0-0.2-0.1-0.2-0.1c0,0-0.1-0.1-0.1-0.2l1.2-3.8l-1-0.4c-3.3-1.3-5.8-3.8-6.6-6.6l-0.2-0.8H6.5l-0.9-4.6h4.2l0.3-0.6
	c1.1-2.2,3.1-4.2,5.5-5.5l0.8-0.4l-0.2-0.9c-0.3-1-0.6-2-0.9-2.8c1.8,0.4,4.4,1.1,6,2.4l0.3,0.3h5.5c6.5,0,12.1,5,12.1,10.8
	C39.2,27.8,36.7,31.2,32.5,32.9z"/>
<g id="New_Symbol_1_">
</g>
<g id="New_Symbol">
	<g transform="translate(0,-952.36218)">
		<path class="st0" d="M21.7,971.3c-2.1,0-3.5,1.7-3.5,3.6c0,1.8,1,3.3,2.3,4.5c1.2,1.2,2.7,2.1,3.7,2.6c0.1,0,0.2,0,0.3,0
			c1-0.5,2.5-1.4,3.7-2.6c1.2-1.2,2.3-2.8,2.3-4.5c0-1.9-1.4-3.6-3.5-3.6c-1.2,0-2,0.6-2.6,1.5C23.7,971.9,22.9,971.3,21.7,971.3z"
			/>
	</g>
</g>
</svg>
