<svg id="Layer_1" data-name="Layer 1" xmlns="http://www.w3.org/2000/svg" viewBox="0 0 45 3.2"><defs><style>.cls-1{fill:#809cff;}</style></defs><title>logo_data_low</title><rect class="cls-1" x="40.04" width="4.96" height="3.2"/><rect class="cls-1" x="25.83" width="12.64" height="3.2"/><rect class="cls-1" x="20.76" width="3.55" height="3.2"/><rect class="cls-1" x="13.66" width="3.55" height="3.2"/><rect class="cls-1" x="1.61" width="10.53" height="3.2"/><polygon class="cls-1" points="54.93 -4.95 49.98 -4.95 49.98 -9.9 46.78 -9.9 46.78 -4.95 41.83 -4.95 41.83 -1.75 46.78 -1.75 46.78 3.2 49.98 3.2 49.98 -1.75 54.93 -1.75 54.93 -4.95"/><path class="cls-1" d="M51.75-6.7h4.93V0H51.73V3.2H73.95c-.87-8.61-8.78-8.13-8.78-8.13-.87-6.23-6.8-5.47-6.8-5.47-.57-3.95-4.62-6.92-9.29-6.92-4.14,0-7.59,2.44-8.31,5.67h11Z"/></svg>