<?xml version="1.0" encoding="utf-8"?>
<!-- Generator: Adobe Illustrator 20.0.0, SVG Export Plug-In . SVG Version: 6.00 Build 0)  -->
<svg version="1.1" id="Layer_1" xmlns="http://www.w3.org/2000/svg" xmlns:xlink="http://www.w3.org/1999/xlink" x="0px" y="0px"
	 viewBox="0 0 50 50" style="enable-background:new 0 0 50 50;" xml:space="preserve">
<style type="text/css">
	.st0{fill:#809CFF;}
</style>
<title>Group</title>
<desc>Created using Figma</desc>
<path class="st0" d="M35.6,22.1c-1,0-1.9,0.9-1.9,1.9s0.9,1.9,1.9,1.9c1,0,1.9-0.9,1.9-1.9S36.6,22.1,35.6,22.1z M35.6,24.6
	c-0.3,0-0.6-0.3-0.6-0.6s0.3-0.6,0.6-0.6c0.3,0,0.6,0.3,0.6,0.6S35.9,24.6,35.6,24.6z"/>
<g>
	<path class="st0" d="M11.9,13.2c0-0.6,0.5-1,1-1h1.2v0.9h1.9V9.2h-1.9v0.9h-1.2c-1.7,0-3.1,1.4-3.1,3.1c0,1.5,0,3.6,0,5h2
		C11.9,16.8,11.9,14.7,11.9,13.2z"/>
	<path class="st0" d="M25.2,12.2h1.2c0.6,0,1,0.5,1,1c0,1.5,0,3.6,0,5h2c0-1.5,0-3.5,0-5c0-1.7-1.4-3.1-3.1-3.1h-1.2V9.2h-1.9v3.9
		h1.9V12.2z"/>
	<path class="st0" d="M35.6,19.5c-2.5,0-4.5,2-4.5,4.5c0,2.2,1.5,4,3.5,4.4v3.4c0,3.8-3.1,6.9-6.9,6.9c-3.8,0-6.9-3.1-6.9-6.9v-5
		c6.3-0.6,8.8-5,8.8-7.5h-2c0,1.5-1.7,5.4-7.7,5.5c-6-0.1-7.7-4.1-7.7-5.5h-2c0,2.5,2.4,6.9,8.8,7.5v5c0,5,4,9,9,9c5,0,9-4,9-9v-3.4
		c2-0.5,3.5-2.3,3.5-4.4C40.1,21.5,38.1,19.5,35.6,19.5z M35.6,27.1c-1.7,0-3.1-1.4-3.1-3.1s1.4-3.1,3.1-3.1s3.1,1.4,3.1,3.1
		S37.3,27.1,35.6,27.1z"/>
</g>
</svg>
